M48
;Layer_Color=9474304
;FILE_FORMAT=4:4
METRIC,LZ
;TYPE=PLATED
T01F00S00C0.7000
T02F00S00C0.7112
T03F00S00C0.7300
T04F00S00C0.7500
T05F00S00C0.7900
T06F00S00C0.8000
T07F00S00C0.8500
T08F00S00C0.9000
T09F00S00C1.0000
T10F00S00C1.1000
T11F00S00C1.2800
T12F00S00C1.3000
T14F00S00C1.8110
%
T01
X-008357Y0064
X-008103
X-007849
X-007595
X-007341
X-007087
X-006833
X-006579
X-006325
X-006071
X-005817
X-005563
X-005309
T02
X-00425024Y00083052
X-00423754Y0019786
X-00402418Y00218688
X-0039768Y0028718
X-00262718Y00193288
X-00215474Y00205734
X-00134194Y0009626
X-0005013Y0024726
X-0046287Y00267202
X-00561676Y00272028
X-00586568Y00314954
X-0065721
X-00643464Y00272028
X-00679532Y00269996
X-00723288Y00218688
X-00585298Y0015722
X-00860126Y00101848
X-00948772Y0018262
X-00957408Y0028422
X-0101643Y0028438
X-0101975Y0031705
X-01068914Y00313684
X-01085678Y00234944
X-01167212Y00295396
X-0120984Y00261637
X-00902798Y00306826
X-0085138Y00317494
X-00927944Y0050393
X-00890352Y00579622
X-00999318Y00599688
X-0111975Y00368802
X-0082101Y0039979
X-00784688Y00433064
X-00790276Y0046075
X-0063338Y00416554
X-00509098Y00386328
X-00728046Y0066776
X-00119716Y00683
X-00215982Y00446272
X-00218776Y00420618
X-00239096Y0041376
X-0028507Y0034772
T03
X-005054Y00447
X-0048
X-004546
T04
X-00765Y0044
X-00715
X-00365Y0034
X-00315
T05
X-007695Y0053
X-007441
X-007187
X-006933
X-006679
X-006425
X-006171
X-005917
X-005663
X-005409
Y006078
X-005663
X-005917
X-006171
X-006425
X-006679
X-006933
X-007187
X-007441
X-007695
T06
X-0035Y0011
X-003373
X-003246
X-0024Y0023
X-002273
X-002146
X-001227Y0035
X-0011
X-000973
T07
X-00195Y0011
X-00145
X-004906Y00085695
X-00516
X-005414
X-005668
X-005922
X-006176
X-00643
X-006684
X-006938
X-007192
X-007446
X-0077
X-007954
X-008208
Y0024
X-007954
X-0077
X-007446
X-007192
X-006938
X-006684
X-00643
X-006176
X-005922
X-005668
X-005414
X-00516
X-004906
X-008462
X-008716
X-00897
X-009224
X-009478
X-009732
Y00085695
X-009478
X-009224
X-00897
X-008716
X-008462
X-006275Y0044
X-005925
X-004771Y0056
X-004421
X-0036Y0058
X-00325
T08
X-003781Y001819
X-003527
X-003273
X-003019
Y002581
X-003273
X-003527
X-003781
X-003881Y004219
X-003627
X-003373
X-003119
Y004981
X-003373
X-003627
X-003881
T09
X-00215Y00495
X-0019
X-00165
T10
X-0004Y002792
Y003046
Y0033
X-000792Y0002
X-001046
X-0013
X-003192
X-003446
X-0037
X-003954
X-004208
X-004992
X-005246
X-0055
X-005754
X-006008
X-006646Y0001
X-0069
X-007154
X-007846Y0002
X-0081
X-008354
X-008054Y0029
X-0078
X-007546
X-007292
X-007038
X-006454
X-0062
X-005946
X-005354
X-0051
X-004846
X-008646
X-0089
X-009154
X-009273Y0002
X-009019
X-009527
X-009781
X-010471Y006192
Y006446
Y0067
Y006954
Y007208
X-011071
Y006954
Y0067
Y006446
Y006192
T11
X-0104Y001592
Y001846
Y0021
T12
X-0006Y00115
Y00165
X-01145Y0007
X-01195
X-0119Y00425
Y00475
Y00575
Y00625
X-010923Y005375
X-010415
X-009907
Y004625
X-010415
X-010923
X-008385
Y005375
X-00375Y007
X-00325
X-0022
X-0017
X-0006Y00615
Y00565
Y00475
Y00425
T14
X-0003Y0003
X-012Y0001
X-0119Y0073
X-0004Y0071
M30
