G04*
G04 #@! TF.GenerationSoftware,Altium Limited,Altium Designer,24.2.2 (26)*
G04*
G04 Layer_Physical_Order=1*
G04 Layer_Color=255*
%FSLAX44Y44*%
%MOMM*%
G71*
G04*
G04 #@! TF.SameCoordinates,10A94CF6-3787-4B2F-9572-986175F5FC9A*
G04*
G04*
G04 #@! TF.FilePolarity,Positive*
G04*
G01*
G75*
%ADD16C,0.2540*%
G04:AMPARAMS|DCode=20|XSize=1.2242mm|YSize=0.538mm|CornerRadius=0.269mm|HoleSize=0mm|Usage=FLASHONLY|Rotation=0.000|XOffset=0mm|YOffset=0mm|HoleType=Round|Shape=RoundedRectangle|*
%AMROUNDEDRECTD20*
21,1,1.2242,0.0000,0,0,0.0*
21,1,0.6863,0.5380,0,0,0.0*
1,1,0.5380,0.3431,0.0000*
1,1,0.5380,-0.3431,0.0000*
1,1,0.5380,-0.3431,0.0000*
1,1,0.5380,0.3431,0.0000*
%
%ADD20ROUNDEDRECTD20*%
%ADD21R,1.2242X0.5380*%
%ADD23R,0.7100X0.4030*%
G04:AMPARAMS|DCode=28|XSize=2.4mm|YSize=5mm|CornerRadius=1.2mm|HoleSize=0mm|Usage=FLASHONLY|Rotation=180.000|XOffset=0mm|YOffset=0mm|HoleType=Round|Shape=RoundedRectangle|*
%AMROUNDEDRECTD28*
21,1,2.4000,2.6000,0,0,180.0*
21,1,0.0000,5.0000,0,0,180.0*
1,1,2.4000,0.0000,1.3000*
1,1,2.4000,0.0000,1.3000*
1,1,2.4000,0.0000,-1.3000*
1,1,2.4000,0.0000,-1.3000*
%
%ADD28ROUNDEDRECTD28*%
%ADD29C,1.5500*%
%ADD30R,1.5500X1.5500*%
%ADD46R,2.0000X2.0000*%
%ADD47C,2.0000*%
%ADD49C,1.3500*%
%ADD50R,1.3500X1.3500*%
%ADD53C,0.2540*%
%ADD54R,0.6500X0.6500*%
%ADD55R,0.6000X0.6000*%
%ADD56R,1.7800X4.2700*%
%ADD57R,0.6000X0.6000*%
%ADD58R,0.9000X0.8000*%
%ADD59R,1.2000X1.2000*%
%ADD60C,1.2000*%
%ADD61C,1.9500*%
%ADD62R,1.1900X1.1900*%
%ADD63C,1.1900*%
%ADD64C,1.6000*%
G04:AMPARAMS|DCode=65|XSize=1.6mm|YSize=1.6mm|CornerRadius=0.4mm|HoleSize=0mm|Usage=FLASHONLY|Rotation=90.000|XOffset=0mm|YOffset=0mm|HoleType=Round|Shape=RoundedRectangle|*
%AMROUNDEDRECTD65*
21,1,1.6000,0.8000,0,0,90.0*
21,1,0.8000,1.6000,0,0,90.0*
1,1,0.8000,0.4000,0.4000*
1,1,0.8000,0.4000,-0.4000*
1,1,0.8000,-0.4000,-0.4000*
1,1,0.8000,-0.4000,0.4000*
%
%ADD65ROUNDEDRECTD65*%
%ADD66C,1.1000*%
%ADD67R,1.1000X1.1000*%
%ADD68C,1.5000*%
%ADD69R,1.5000X1.5000*%
%ADD70C,1.0500*%
%ADD71R,1.0500X1.0500*%
%ADD72C,1.9200*%
%ADD73R,1.9200X1.9200*%
G04:AMPARAMS|DCode=74|XSize=1.6mm|YSize=1.6mm|CornerRadius=0.4mm|HoleSize=0mm|Usage=FLASHONLY|Rotation=180.000|XOffset=0mm|YOffset=0mm|HoleType=Round|Shape=RoundedRectangle|*
%AMROUNDEDRECTD74*
21,1,1.6000,0.8000,0,0,180.0*
21,1,0.8000,1.6000,0,0,180.0*
1,1,0.8000,-0.4000,0.4000*
1,1,0.8000,0.4000,0.4000*
1,1,0.8000,0.4000,-0.4000*
1,1,0.8000,-0.4000,-0.4000*
%
%ADD74ROUNDEDRECTD74*%
%ADD75C,1.1300*%
%ADD76R,1.1300X1.1300*%
%ADD77C,3.2700*%
%ADD78C,1.2700*%
G36*
X-955764Y608730D02*
X-960921Y603573D01*
X-991295D01*
X-992204Y605147D01*
X-993783Y606725D01*
X-993754Y607068D01*
X-993387Y607995D01*
X-967120D01*
X-965633Y608291D01*
X-964373Y609133D01*
X-963506Y610000D01*
X-956290D01*
X-955764Y608730D01*
D02*
G37*
G36*
X-1002405Y609355D02*
X-1002749Y607972D01*
X-1004777Y606802D01*
X-1006432Y605147D01*
X-1007602Y603119D01*
X-1008208Y600858D01*
Y598518D01*
X-1007602Y596257D01*
X-1006432Y594229D01*
X-1004777Y592574D01*
X-1002749Y591404D01*
X-1000488Y590798D01*
X-998148D01*
X-995887Y591404D01*
X-993859Y592574D01*
X-992204Y594229D01*
X-991295Y595803D01*
X-959312D01*
X-957825Y596099D01*
X-956565Y596941D01*
X-949046Y604460D01*
X-946075D01*
Y532855D01*
X-947345Y532730D01*
X-947469Y533357D01*
X-948311Y534617D01*
X-1000635Y586941D01*
X-1001895Y587783D01*
X-1003382Y588079D01*
X-1045086D01*
X-1065834Y608827D01*
X-1065348Y610000D01*
X-1063858D01*
X-1063279Y609133D01*
X-1057183Y603037D01*
X-1055923Y602195D01*
X-1054436Y601899D01*
X-1021066D01*
X-1019579Y602195D01*
X-1018319Y603037D01*
X-1011356Y610000D01*
X-1002959D01*
X-1002405Y609355D01*
D02*
G37*
G36*
X-884077Y587599D02*
X-885347Y586997D01*
X-886921Y587906D01*
X-889182Y588512D01*
X-891522D01*
X-893783Y587906D01*
X-895811Y586736D01*
X-897466Y585081D01*
X-897721Y584639D01*
X-898980Y584473D01*
X-923236Y608730D01*
X-922710Y610000D01*
X-884077D01*
Y587599D01*
D02*
G37*
G36*
X-780000Y547653D02*
X-781173Y547167D01*
X-790963Y556957D01*
Y610000D01*
X-780000D01*
Y547653D01*
D02*
G37*
G36*
X-995182Y485689D02*
X-993922Y484847D01*
X-992436Y484551D01*
X-887643D01*
X-814735Y411643D01*
Y407767D01*
X-816005Y407165D01*
X-817579Y408074D01*
X-819840Y408680D01*
X-822180D01*
X-824441Y408074D01*
X-826469Y406904D01*
X-828124Y405249D01*
X-829294Y403221D01*
X-829900Y400960D01*
Y398620D01*
X-829294Y396359D01*
X-828124Y394331D01*
X-826469Y392676D01*
X-825501Y392118D01*
X-825350Y390644D01*
X-830454Y385540D01*
X-836040D01*
X-836115Y386779D01*
Y393126D01*
X-836411Y394613D01*
X-837253Y395873D01*
X-837567Y396187D01*
X-838827Y397029D01*
X-840314Y397325D01*
X-888287D01*
X-889774Y397029D01*
X-891034Y396187D01*
X-896114Y391107D01*
X-896956Y389847D01*
X-897252Y388360D01*
Y387742D01*
X-899454Y385540D01*
X-905040D01*
Y383885D01*
X-938641D01*
X-944460Y389703D01*
Y395790D01*
X-950546D01*
X-964723Y409967D01*
X-965983Y410809D01*
X-967470Y411105D01*
X-1002530D01*
X-1004016Y410809D01*
X-1005276Y409967D01*
X-1019454Y395790D01*
X-1020046D01*
X-1037615Y413359D01*
Y450559D01*
X-1036659Y450815D01*
X-1033800Y452466D01*
X-1031465Y454800D01*
X-1029814Y457660D01*
X-1028960Y460849D01*
Y464151D01*
X-1029814Y467340D01*
X-1031465Y470200D01*
X-1033800Y472535D01*
X-1036659Y474185D01*
X-1039849Y475040D01*
X-1043151D01*
X-1046340Y474185D01*
X-1049200Y472535D01*
X-1051534Y470200D01*
X-1053185Y467340D01*
X-1054040Y464151D01*
Y460849D01*
X-1053185Y457660D01*
X-1051534Y454800D01*
X-1049200Y452466D01*
X-1046340Y450815D01*
X-1045384Y450559D01*
Y411750D01*
X-1045089Y410263D01*
X-1044247Y409003D01*
X-1025540Y390296D01*
Y389703D01*
X-1028587Y386657D01*
X-1044460D01*
Y395790D01*
X-1050546D01*
X-1054563Y399807D01*
X-1055824Y400649D01*
X-1057310Y400945D01*
X-1107310D01*
X-1107524Y400902D01*
X-1108505Y401708D01*
Y465001D01*
X-1104476Y469030D01*
X-1103460Y468250D01*
X-1103985Y467340D01*
X-1104840Y464151D01*
Y460849D01*
X-1103985Y457660D01*
X-1102334Y454800D01*
X-1099999Y452466D01*
X-1097140Y450815D01*
X-1093951Y449960D01*
X-1090649D01*
X-1087459Y450815D01*
X-1084600Y452466D01*
X-1082265Y454800D01*
X-1080614Y457660D01*
X-1079760Y460849D01*
Y464151D01*
X-1080614Y467340D01*
X-1082265Y470200D01*
X-1084600Y472535D01*
X-1087459Y474185D01*
X-1090649Y475040D01*
X-1093951D01*
X-1097140Y474185D01*
X-1098050Y473660D01*
X-1098830Y474676D01*
X-1047197Y526309D01*
X-1046340Y525815D01*
X-1043151Y524960D01*
X-1039849D01*
X-1036659Y525815D01*
X-1035803Y526309D01*
X-995182Y485689D01*
D02*
G37*
G36*
X-935540Y604460D02*
X-929954D01*
X-902369Y576875D01*
X-901109Y576033D01*
X-899622Y575737D01*
X-898374D01*
X-897466Y574163D01*
X-895811Y572508D01*
X-893783Y571338D01*
X-891522Y570732D01*
X-889182D01*
X-886921Y571338D01*
X-885347Y572247D01*
X-884077Y571645D01*
Y535511D01*
X-918073Y501515D01*
X-919211Y502173D01*
X-919054Y502760D01*
Y505100D01*
X-919660Y507361D01*
X-920830Y509389D01*
X-922485Y511044D01*
X-924513Y512214D01*
X-926774Y512820D01*
X-929114D01*
X-930870Y512350D01*
X-938305Y519785D01*
Y610000D01*
X-935540D01*
Y604460D01*
D02*
G37*
G36*
X-798733Y555348D02*
X-798437Y553862D01*
X-797595Y552601D01*
X-780000Y535006D01*
Y496489D01*
X-781173Y496003D01*
X-820681Y535511D01*
Y610000D01*
X-798733D01*
Y555348D01*
D02*
G37*
G36*
X-1049442Y581447D02*
X-1048181Y580605D01*
X-1046695Y580309D01*
X-1004991D01*
X-954943Y530261D01*
Y505200D01*
X-954647Y503713D01*
X-953805Y502453D01*
X-944846Y493494D01*
X-945332Y492321D01*
X-990827D01*
X-1030309Y531803D01*
X-1029814Y532660D01*
X-1028960Y535849D01*
Y539151D01*
X-1029814Y542340D01*
X-1031465Y545200D01*
X-1033800Y547535D01*
X-1036659Y549186D01*
X-1039849Y550040D01*
X-1043151D01*
X-1046340Y549186D01*
X-1049200Y547535D01*
X-1051534Y545200D01*
X-1053185Y542340D01*
X-1054040Y539151D01*
Y535849D01*
X-1053185Y532660D01*
X-1052691Y531803D01*
X-1115137Y469357D01*
X-1115979Y468096D01*
X-1116275Y466610D01*
Y395790D01*
X-1125540D01*
Y384210D01*
X-1123635D01*
Y376824D01*
X-1125209Y375916D01*
X-1126864Y374261D01*
X-1128034Y372233D01*
X-1128640Y369972D01*
Y367632D01*
X-1128034Y365371D01*
X-1126864Y363343D01*
X-1125209Y361688D01*
X-1123182Y360518D01*
X-1120920Y359912D01*
X-1118580D01*
X-1116319Y360518D01*
X-1114292Y361688D01*
X-1112636Y363343D01*
X-1111466Y365371D01*
X-1110860Y367632D01*
Y369040D01*
X-1109590Y369566D01*
X-1102269Y362245D01*
X-1101009Y361403D01*
X-1099522Y361107D01*
X-1052743D01*
X-1046891Y355255D01*
Y345790D01*
X-1050546D01*
X-1054715Y349959D01*
X-1055976Y350801D01*
X-1057462Y351097D01*
X-1093038D01*
X-1094525Y350801D01*
X-1095785Y349959D01*
X-1099954Y345790D01*
X-1106040D01*
Y336619D01*
X-1110875D01*
X-1113960Y339704D01*
Y345790D01*
X-1120046D01*
X-1120191Y345935D01*
X-1150000Y390000D01*
Y530000D01*
X-1073997Y606003D01*
X-1049442Y581447D01*
D02*
G37*
G36*
X-300000Y440000D02*
Y410000D01*
X-302503Y407497D01*
X-306987Y411980D01*
X-306821Y413239D01*
X-305735Y413866D01*
X-303866Y415736D01*
X-302544Y418025D01*
X-301860Y420578D01*
Y423222D01*
X-302544Y425775D01*
X-303866Y428065D01*
X-305735Y429934D01*
X-308025Y431256D01*
X-310578Y431940D01*
X-313222D01*
X-315775Y431256D01*
X-318065Y429934D01*
X-319539Y428460D01*
X-320809Y428986D01*
Y455670D01*
X-321105Y457157D01*
X-321947Y458417D01*
X-336933Y473403D01*
X-338193Y474245D01*
X-339680Y474541D01*
X-383791D01*
X-395739Y486489D01*
Y490000D01*
X-394150D01*
X-391975Y488744D01*
X-389422Y488060D01*
X-386778D01*
X-384225Y488744D01*
X-382050Y490000D01*
X-368750D01*
X-366575Y488744D01*
X-364022Y488060D01*
X-361378D01*
X-358825Y488744D01*
X-356650Y490000D01*
X-350000D01*
X-300000Y440000D01*
D02*
G37*
G36*
X-456667Y488827D02*
X-473237Y472257D01*
X-474079Y470997D01*
X-474375Y469510D01*
Y454676D01*
X-475645Y453943D01*
X-476839Y454632D01*
X-478922Y455190D01*
X-481078D01*
X-483161Y454632D01*
X-485028Y453554D01*
X-486553Y452029D01*
X-487632Y450161D01*
X-488190Y448078D01*
Y445922D01*
X-487632Y443839D01*
X-486553Y441971D01*
X-485028Y440446D01*
X-483161Y439368D01*
X-481758Y438992D01*
X-481365Y437589D01*
X-509477Y409477D01*
X-539797Y439797D01*
X-489594Y490000D01*
X-457153D01*
X-456667Y488827D01*
D02*
G37*
G36*
X-828451Y550040D02*
X-851040D01*
Y524960D01*
X-831454D01*
X-780000Y473507D01*
Y451785D01*
X-781173Y451299D01*
X-784164Y454290D01*
X-783162Y455291D01*
X-781992Y457319D01*
X-781386Y459580D01*
Y461920D01*
X-781992Y464181D01*
X-783162Y466209D01*
X-784817Y467864D01*
X-786845Y469034D01*
X-789106Y469640D01*
X-791446D01*
X-793707Y469034D01*
X-795735Y467864D01*
X-797390Y466209D01*
X-798560Y464181D01*
X-799166Y461920D01*
Y459580D01*
X-798560Y457319D01*
X-797390Y455291D01*
X-795735Y453636D01*
X-793707Y452466D01*
X-793122Y452309D01*
X-793023Y452161D01*
X-784086Y443224D01*
X-784612Y441954D01*
X-785858D01*
X-788119Y441348D01*
X-790147Y440178D01*
X-791802Y438523D01*
X-792972Y436495D01*
X-793578Y434234D01*
Y431894D01*
X-792972Y429633D01*
X-791802Y427605D01*
X-790147Y425950D01*
X-788119Y424780D01*
X-785858Y424174D01*
X-784385D01*
Y375540D01*
X-786040D01*
Y366845D01*
X-790851D01*
X-793960Y369954D01*
Y375540D01*
X-799546D01*
X-806965Y382959D01*
Y413252D01*
X-807261Y414739D01*
X-808103Y415999D01*
X-841030Y448926D01*
X-840395Y450025D01*
X-840151Y449960D01*
X-836849D01*
X-833660Y450815D01*
X-830800Y452466D01*
X-828465Y454800D01*
X-826814Y457660D01*
X-825960Y460849D01*
Y464151D01*
X-826814Y467340D01*
X-828465Y470200D01*
X-830800Y472535D01*
X-833660Y474185D01*
X-836849Y475040D01*
X-840151D01*
X-843340Y474185D01*
X-846200Y472535D01*
X-848534Y470200D01*
X-850185Y467340D01*
X-851040Y464151D01*
Y460849D01*
X-850975Y460605D01*
X-852074Y459970D01*
X-883287Y491183D01*
X-884547Y492025D01*
X-886034Y492321D01*
X-914620D01*
X-915106Y493494D01*
X-877445Y531155D01*
X-876603Y532415D01*
X-876307Y533902D01*
Y610000D01*
X-828451D01*
Y550040D01*
D02*
G37*
G36*
X-501755Y488827D02*
X-545291Y445291D01*
X-588730Y488730D01*
X-588204Y490000D01*
X-502241D01*
X-501755Y488827D01*
D02*
G37*
G36*
X-403509Y484880D02*
X-403213Y483393D01*
X-402371Y482133D01*
X-388147Y467909D01*
X-386887Y467067D01*
X-385400Y466771D01*
X-341289D01*
X-328579Y454061D01*
Y429174D01*
X-329849Y428647D01*
X-331135Y429934D01*
X-333425Y431256D01*
X-335978Y431940D01*
X-338622D01*
X-341175Y431256D01*
X-343465Y429934D01*
X-345334Y428065D01*
X-346656Y425775D01*
X-347340Y423222D01*
Y420578D01*
X-346656Y418025D01*
X-345334Y415736D01*
X-343465Y413866D01*
X-341185Y412550D01*
Y395787D01*
X-340889Y394300D01*
X-340047Y393040D01*
X-328503Y381497D01*
X-330000Y380000D01*
Y377767D01*
X-338473D01*
X-378060Y417354D01*
Y431940D01*
X-398140D01*
Y411860D01*
X-383554D01*
X-342829Y371135D01*
X-341568Y370293D01*
X-340082Y369997D01*
X-330000D01*
Y353195D01*
X-339680D01*
X-341167Y352899D01*
X-342427Y352057D01*
X-355786Y338697D01*
X-356960Y339183D01*
Y348040D01*
X-361115D01*
Y357400D01*
X-361411Y358886D01*
X-362253Y360147D01*
X-446410Y444304D01*
Y455190D01*
X-462790D01*
Y438810D01*
X-451903D01*
X-368884Y355791D01*
Y348040D01*
X-373040D01*
Y336573D01*
X-374213Y336087D01*
X-427201Y389075D01*
X-428461Y389917D01*
X-429948Y390213D01*
X-490213D01*
X-503983Y403983D01*
X-467743Y440223D01*
X-466901Y441483D01*
X-466605Y442970D01*
Y467901D01*
X-444506Y490000D01*
X-403509D01*
Y484880D01*
D02*
G37*
G36*
X-891443Y380904D02*
Y323675D01*
X-899872Y315246D01*
X-901628Y315716D01*
X-903968D01*
X-906229Y315110D01*
X-908257Y313940D01*
X-909912Y312285D01*
X-911082Y310257D01*
X-911688Y307996D01*
Y305656D01*
X-911082Y303395D01*
X-909912Y301367D01*
X-908257Y299712D01*
X-906229Y298542D01*
X-903968Y297936D01*
X-901628D01*
X-899367Y298542D01*
X-897339Y299712D01*
X-895684Y301367D01*
X-894514Y303395D01*
X-893908Y305656D01*
Y307996D01*
X-894378Y309752D01*
X-884811Y319319D01*
X-883969Y320579D01*
X-883673Y322066D01*
Y374460D01*
X-880454D01*
X-853343Y347349D01*
Y346761D01*
X-853460Y345540D01*
X-864540D01*
Y334460D01*
X-862884D01*
Y325114D01*
X-862589Y323627D01*
X-861747Y322367D01*
X-859799Y320420D01*
X-860270Y318664D01*
Y316324D01*
X-859664Y314063D01*
X-858494Y312035D01*
X-858088Y311630D01*
X-858574Y310457D01*
X-868000D01*
X-869487Y310161D01*
X-870747Y309319D01*
X-880907Y299159D01*
X-881528Y298230D01*
X-882953Y297859D01*
X-883528Y298434D01*
X-885932Y299822D01*
X-888612Y300540D01*
X-891388D01*
X-894068Y299822D01*
X-896472Y298434D01*
X-898434Y296472D01*
X-899822Y294068D01*
X-900540Y291388D01*
Y288612D01*
X-899822Y285932D01*
X-898434Y283528D01*
X-896472Y281566D01*
X-894068Y280178D01*
X-891388Y279460D01*
X-888612D01*
X-886978Y279898D01*
X-886320Y278759D01*
X-914435Y250645D01*
X-915277Y249385D01*
X-915538Y248072D01*
X-916113Y247736D01*
X-916843Y247519D01*
X-918814Y248657D01*
X-921177Y249290D01*
X-923623D01*
X-925653Y248746D01*
X-940315Y263409D01*
Y333950D01*
X-940611Y335437D01*
X-941453Y336697D01*
X-944460Y339704D01*
Y345790D01*
X-946365D01*
Y378962D01*
X-945192Y379448D01*
X-942997Y377253D01*
X-941736Y376411D01*
X-940250Y376115D01*
X-905040D01*
Y374460D01*
X-893960D01*
Y380046D01*
X-892616Y381390D01*
X-891443Y380904D01*
D02*
G37*
G36*
X-758018Y368018D02*
X-758504Y366845D01*
X-774960D01*
Y375540D01*
X-776615D01*
Y384956D01*
X-775442Y385442D01*
X-758018Y368018D01*
D02*
G37*
G36*
X-869525Y377253D02*
X-868264Y376411D01*
X-866778Y376115D01*
X-855040D01*
Y374460D01*
X-843960D01*
X-843885Y373221D01*
Y345540D01*
X-845540D01*
X-845573Y346796D01*
Y348958D01*
X-845869Y350445D01*
X-846711Y351705D01*
X-874862Y379856D01*
X-874760Y380799D01*
X-873545Y381274D01*
X-869525Y377253D01*
D02*
G37*
G36*
X-956040Y390296D02*
Y384210D01*
X-954134D01*
Y345790D01*
X-956040D01*
Y343885D01*
X-963960D01*
Y345790D01*
X-972925D01*
Y381331D01*
X-970046Y384210D01*
X-963960D01*
Y395790D01*
X-975540D01*
Y389703D01*
X-976832Y388411D01*
X-978005Y388897D01*
Y395920D01*
X-978301Y397407D01*
X-979143Y398667D01*
X-982638Y402162D01*
X-982152Y403335D01*
X-969079D01*
X-956040Y390296D01*
D02*
G37*
G36*
X-814735Y391813D02*
Y381350D01*
X-814439Y379864D01*
X-813597Y378603D01*
X-805040Y370046D01*
Y364460D01*
X-799454D01*
X-795207Y360213D01*
X-793947Y359371D01*
X-792460Y359075D01*
X-749075D01*
X-734385Y344385D01*
Y341609D01*
X-740454Y335540D01*
X-740546D01*
X-747753Y342747D01*
X-749014Y343589D01*
X-750500Y343885D01*
X-834460D01*
Y345540D01*
X-836115D01*
Y373221D01*
X-836040Y374460D01*
X-824960D01*
Y380046D01*
X-818263Y386743D01*
X-817421Y388003D01*
X-817125Y389490D01*
Y391768D01*
X-816005Y392415D01*
X-814735Y391813D01*
D02*
G37*
G36*
X-330000Y330494D02*
X-330999Y329495D01*
X-351034D01*
X-351840Y330476D01*
X-351797Y330690D01*
Y331699D01*
X-338071Y345425D01*
X-330000D01*
Y330494D01*
D02*
G37*
G36*
X-379782Y330668D02*
X-380268Y329495D01*
X-429495D01*
X-444960Y344960D01*
Y355540D01*
X-450546D01*
X-473716Y378710D01*
X-474977Y379552D01*
X-476463Y379847D01*
X-479847D01*
X-481270Y381270D01*
X-480784Y382443D01*
X-431557D01*
X-379782Y330668D01*
D02*
G37*
G36*
X-713060Y323060D02*
X-713546Y321887D01*
X-745893D01*
X-753960Y329954D01*
Y335540D01*
X-752928Y336115D01*
X-752109D01*
X-746040Y330046D01*
Y324460D01*
X-734960D01*
Y330046D01*
X-728891Y336115D01*
X-726115D01*
X-713060Y323060D01*
D02*
G37*
G36*
X-956040Y334210D02*
X-949954D01*
X-948085Y332341D01*
Y288391D01*
X-949355Y288051D01*
X-950294Y289679D01*
X-951949Y291334D01*
X-953977Y292504D01*
X-956238Y293110D01*
X-958578D01*
X-960334Y292640D01*
X-972925Y305231D01*
Y334210D01*
X-963960D01*
Y336115D01*
X-956040D01*
Y334210D01*
D02*
G37*
G36*
X-853460Y334460D02*
Y334460D01*
X-852250Y334179D01*
X-852205Y334111D01*
X-845347Y327253D01*
X-844087Y326411D01*
X-842600Y326115D01*
X-765040D01*
Y324460D01*
X-759454D01*
X-750249Y315255D01*
X-748988Y314413D01*
X-747502Y314117D01*
X-704117D01*
X-673257Y283257D01*
Y277973D01*
X-674527Y277372D01*
X-676101Y278280D01*
X-678362Y278886D01*
X-680702D01*
X-682963Y278280D01*
X-684991Y277110D01*
X-686646Y275455D01*
X-687816Y273427D01*
X-688422Y271166D01*
Y268826D01*
X-687816Y266565D01*
X-686646Y264537D01*
X-684991Y262882D01*
X-683417Y261973D01*
Y242049D01*
X-684687Y241882D01*
X-685143Y243586D01*
X-686366Y245704D01*
X-688096Y247434D01*
X-690214Y248657D01*
X-692577Y249290D01*
X-695023D01*
X-697053Y248746D01*
X-701745Y253439D01*
X-703006Y254281D01*
X-704492Y254577D01*
X-798573D01*
X-851330Y307334D01*
X-850804Y308604D01*
X-850209D01*
X-847948Y309210D01*
X-845921Y310380D01*
X-844266Y312035D01*
X-843096Y314063D01*
X-842490Y316324D01*
Y318664D01*
X-843096Y320925D01*
X-844266Y322953D01*
X-845921Y324608D01*
X-847948Y325778D01*
X-850209Y326384D01*
X-852550D01*
X-854165Y325951D01*
X-855115Y326772D01*
Y334460D01*
X-853460D01*
X-853460Y334460D01*
D02*
G37*
G36*
X-1056040Y340296D02*
Y334210D01*
X-1055678D01*
X-1055152Y332940D01*
X-1065988Y322104D01*
X-1067744Y322574D01*
X-1070084D01*
X-1072345Y321968D01*
X-1074373Y320798D01*
X-1076028Y319143D01*
X-1077198Y317115D01*
X-1077804Y314854D01*
Y312514D01*
X-1077198Y310253D01*
X-1076028Y308225D01*
X-1074373Y306570D01*
X-1072345Y305400D01*
X-1070084Y304794D01*
X-1067744D01*
X-1065483Y305400D01*
X-1063455Y306570D01*
X-1061800Y308225D01*
X-1060630Y310253D01*
X-1060024Y312514D01*
Y314854D01*
X-1060494Y316610D01*
X-1048161Y328944D01*
X-1046891Y328418D01*
Y279733D01*
X-1056167Y270457D01*
X-1057009Y269197D01*
X-1057305Y267710D01*
Y255139D01*
X-1058519Y254767D01*
X-1107875Y327728D01*
X-1107279Y328849D01*
X-1077016D01*
X-1075529Y329145D01*
X-1074269Y329987D01*
X-1070046Y334210D01*
X-1063960D01*
Y343327D01*
X-1059071D01*
X-1056040Y340296D01*
D02*
G37*
G36*
X-1021889Y277266D02*
X-1020315Y276357D01*
Y233122D01*
X-1021488Y232636D01*
X-1024135Y235283D01*
Y277717D01*
X-1022865Y278243D01*
X-1021889Y277266D01*
D02*
G37*
G36*
X-1006040Y389027D02*
Y384210D01*
X-999954D01*
X-996853Y381109D01*
Y345790D01*
X-1006040D01*
Y334210D01*
X-1004135D01*
Y313769D01*
X-1016845Y301059D01*
X-1022686D01*
X-1024173Y300763D01*
X-1025433Y299921D01*
X-1030767Y294587D01*
X-1031609Y293327D01*
X-1031905Y291840D01*
Y233674D01*
X-1031609Y232187D01*
X-1030767Y230927D01*
X-1025395Y225555D01*
Y207968D01*
X-1026609Y207596D01*
X-1027860Y209445D01*
Y222140D01*
X-1036448D01*
X-1049535Y241487D01*
Y266101D01*
X-1040259Y275377D01*
X-1039417Y276637D01*
X-1039121Y278124D01*
Y356864D01*
X-1039417Y358351D01*
X-1040259Y359611D01*
X-1048387Y367739D01*
X-1049647Y368581D01*
X-1051134Y368877D01*
X-1097914D01*
X-1101066Y372029D01*
X-1100540Y373299D01*
X-1020400D01*
X-1018913Y373595D01*
X-1017653Y374437D01*
X-1009643Y382447D01*
X-1008801Y383707D01*
X-1008506Y385194D01*
Y388221D01*
X-1007214Y389513D01*
X-1006040Y389027D01*
D02*
G37*
G36*
X-985775Y394311D02*
Y290922D01*
X-985479Y289436D01*
X-984637Y288175D01*
X-947022Y250560D01*
X-947548Y249290D01*
X-949023D01*
X-951386Y248657D01*
X-953504Y247434D01*
X-955234Y245704D01*
X-956457Y243586D01*
X-957090Y241223D01*
Y238777D01*
X-956457Y236414D01*
X-955234Y234296D01*
X-953504Y232566D01*
X-951386Y231343D01*
X-949023Y230710D01*
X-946577D01*
X-944214Y231343D01*
X-942096Y232566D01*
X-941189Y233473D01*
X-940154Y233371D01*
X-939744Y233122D01*
X-933231Y226609D01*
X-931971Y225767D01*
X-930484Y225471D01*
X-915752D01*
X-914265Y225767D01*
X-913005Y226609D01*
X-908941Y230673D01*
X-908099Y231933D01*
X-907803Y233420D01*
Y246289D01*
X-875413Y278679D01*
X-874571Y279939D01*
X-874411Y280744D01*
X-873916Y280999D01*
X-873034Y281159D01*
X-871898Y280287D01*
X-870307Y279628D01*
X-868600Y279404D01*
X-860600D01*
X-859626Y279532D01*
X-835309Y255215D01*
Y96319D01*
X-835013Y94832D01*
X-834171Y93572D01*
X-829546Y88948D01*
X-830090Y86918D01*
Y84472D01*
X-829457Y82109D01*
X-828234Y79991D01*
X-826504Y78261D01*
X-824386Y77038D01*
X-822023Y76405D01*
X-819577D01*
X-817214Y77038D01*
X-815096Y78261D01*
X-813366Y79991D01*
X-812143Y82109D01*
X-811510Y84472D01*
Y86918D01*
X-812143Y89281D01*
X-813366Y91399D01*
X-815096Y93129D01*
X-817214Y94352D01*
X-819577Y94985D01*
X-822023D01*
X-824053Y94441D01*
X-827539Y97928D01*
Y231988D01*
X-826269Y232431D01*
X-824386Y231343D01*
X-822023Y230710D01*
X-819577D01*
X-817214Y231343D01*
X-815096Y232566D01*
X-813366Y234296D01*
X-812143Y236414D01*
X-811510Y238777D01*
Y241223D01*
X-812143Y243586D01*
X-813366Y245704D01*
X-815096Y247434D01*
X-817214Y248657D01*
X-819577Y249290D01*
X-822023D01*
X-824386Y248657D01*
X-826269Y247570D01*
X-827539Y248013D01*
Y256824D01*
X-827835Y258311D01*
X-828677Y259571D01*
X-854132Y285026D01*
X-854004Y286000D01*
Y294000D01*
X-854228Y295707D01*
X-854887Y297298D01*
X-855936Y298664D01*
X-857302Y299713D01*
X-858893Y300372D01*
X-860600Y300597D01*
X-866823D01*
X-867309Y301770D01*
X-866391Y302687D01*
X-857671D01*
X-802929Y247945D01*
X-802605Y247729D01*
X-802444Y246094D01*
X-802834Y245704D01*
X-804057Y243586D01*
X-804690Y241223D01*
Y238777D01*
X-804057Y236414D01*
X-802834Y234296D01*
X-801104Y232566D01*
X-798986Y231343D01*
X-796623Y230710D01*
X-794177D01*
X-791814Y231343D01*
X-789696Y232566D01*
X-787966Y234296D01*
X-786743Y236414D01*
X-786110Y238777D01*
Y241223D01*
X-786743Y243586D01*
X-787870Y245537D01*
X-787476Y246807D01*
X-777924D01*
X-777531Y245537D01*
X-778657Y243586D01*
X-779290Y241223D01*
Y238777D01*
X-778657Y236414D01*
X-777434Y234296D01*
X-775704Y232566D01*
X-773586Y231343D01*
X-771223Y230710D01*
X-768777D01*
X-766414Y231343D01*
X-764296Y232566D01*
X-762566Y234296D01*
X-761343Y236414D01*
X-760710Y238777D01*
Y241223D01*
X-761343Y243586D01*
X-762470Y245537D01*
X-762076Y246807D01*
X-752524D01*
X-752131Y245537D01*
X-753257Y243586D01*
X-753890Y241223D01*
Y238777D01*
X-753257Y236414D01*
X-752034Y234296D01*
X-750304Y232566D01*
X-748186Y231343D01*
X-745823Y230710D01*
X-743377D01*
X-741348Y231254D01*
X-731708Y221614D01*
X-732178Y219858D01*
Y217518D01*
X-731572Y215257D01*
X-730402Y213229D01*
X-728747Y211574D01*
X-726720Y210404D01*
X-724458Y209798D01*
X-722118D01*
X-719857Y210404D01*
X-717830Y211574D01*
X-716174Y213229D01*
X-715004Y215257D01*
X-714398Y217518D01*
Y219858D01*
X-715004Y222119D01*
X-716174Y224147D01*
X-717830Y225802D01*
X-719857Y226972D01*
X-722118Y227578D01*
X-724458D01*
X-726214Y227108D01*
X-735854Y236748D01*
X-735310Y238777D01*
Y241223D01*
X-735943Y243586D01*
X-737070Y245537D01*
X-736676Y246807D01*
X-727124D01*
X-726730Y245537D01*
X-727857Y243586D01*
X-728490Y241223D01*
Y238777D01*
X-727857Y236414D01*
X-726634Y234296D01*
X-724904Y232566D01*
X-722786Y231343D01*
X-720423Y230710D01*
X-717977D01*
X-715614Y231343D01*
X-713496Y232566D01*
X-711766Y234296D01*
X-710543Y236414D01*
X-709910Y238777D01*
Y241223D01*
X-710543Y243586D01*
X-711670Y245537D01*
X-711276Y246807D01*
X-706101D01*
X-702546Y243253D01*
X-703090Y241223D01*
Y238777D01*
X-702457Y236414D01*
X-701234Y234296D01*
X-699504Y232566D01*
X-697386Y231343D01*
X-695023Y230710D01*
X-692577D01*
X-690214Y231343D01*
X-688096Y232566D01*
X-686366Y234296D01*
X-685143Y236414D01*
X-684687Y238118D01*
X-683417Y237951D01*
Y203172D01*
X-792148Y94441D01*
X-794177Y94985D01*
X-796623D01*
X-798986Y94352D01*
X-801104Y93129D01*
X-802834Y91399D01*
X-804057Y89281D01*
X-804690Y86918D01*
Y84472D01*
X-804057Y82109D01*
X-802834Y79991D01*
X-801104Y78261D01*
X-798986Y77038D01*
X-796623Y76405D01*
X-794177D01*
X-791814Y77038D01*
X-789696Y78261D01*
X-787966Y79991D01*
X-786743Y82109D01*
X-786110Y84472D01*
Y86918D01*
X-786654Y88948D01*
X-676785Y198817D01*
X-675943Y200077D01*
X-675647Y201563D01*
Y232450D01*
X-674474Y232936D01*
X-674104Y232566D01*
X-671986Y231343D01*
X-669623Y230710D01*
X-667177D01*
X-664814Y231343D01*
X-662843Y232482D01*
X-661589Y232108D01*
X-661573Y232101D01*
Y207597D01*
X-685835Y183335D01*
X-686677Y182075D01*
X-686973Y180588D01*
Y93594D01*
X-686989Y93588D01*
X-688243Y93214D01*
X-690214Y94352D01*
X-692577Y94985D01*
X-695023D01*
X-697386Y94352D01*
X-699504Y93129D01*
X-701234Y91399D01*
X-702457Y89281D01*
X-703090Y86918D01*
Y84472D01*
X-702546Y82443D01*
X-718147Y66842D01*
X-718989Y65582D01*
X-719285Y64096D01*
Y50000D01*
X-730003D01*
Y93720D01*
X-730299Y95207D01*
X-731141Y96467D01*
X-733681Y99007D01*
X-734941Y99849D01*
X-736428Y100145D01*
X-759435D01*
X-760922Y99849D01*
X-762182Y99007D01*
X-766748Y94441D01*
X-768777Y94985D01*
X-771223D01*
X-773586Y94352D01*
X-775704Y93129D01*
X-777434Y91399D01*
X-778657Y89281D01*
X-779290Y86918D01*
Y84472D01*
X-778657Y82109D01*
X-777434Y79991D01*
X-775704Y78261D01*
X-773586Y77038D01*
X-771223Y76405D01*
X-768777D01*
X-766414Y77038D01*
X-764296Y78261D01*
X-762566Y79991D01*
X-761343Y82109D01*
X-760710Y84472D01*
Y86918D01*
X-761254Y88948D01*
X-757826Y92375D01*
X-752690D01*
X-752204Y91105D01*
X-753257Y89281D01*
X-753890Y86918D01*
Y84472D01*
X-753257Y82109D01*
X-752034Y79991D01*
X-750304Y78261D01*
X-748485Y77211D01*
Y50000D01*
X-834506D01*
X-856241Y71735D01*
Y82368D01*
X-854971Y82536D01*
X-854857Y82109D01*
X-853634Y79991D01*
X-851904Y78261D01*
X-849786Y77038D01*
X-847423Y76405D01*
X-844977D01*
X-842614Y77038D01*
X-840496Y78261D01*
X-838766Y79991D01*
X-837543Y82109D01*
X-836910Y84472D01*
Y86918D01*
X-837543Y89281D01*
X-838766Y91399D01*
X-840496Y93129D01*
X-842614Y94352D01*
X-844977Y94985D01*
X-847423D01*
X-849786Y94352D01*
X-851904Y93129D01*
X-853634Y91399D01*
X-854857Y89281D01*
X-854971Y88855D01*
X-856241Y89022D01*
Y93826D01*
X-854667Y94734D01*
X-853012Y96389D01*
X-851842Y98417D01*
X-851236Y100678D01*
Y103018D01*
X-851842Y105279D01*
X-853012Y107307D01*
X-854667Y108962D01*
X-856695Y110132D01*
X-858956Y110738D01*
X-861296D01*
X-863557Y110132D01*
X-865585Y108962D01*
X-867240Y107307D01*
X-868410Y105279D01*
X-869016Y103018D01*
Y100678D01*
X-868410Y98417D01*
X-867240Y96389D01*
X-865585Y94734D01*
X-864604Y94168D01*
X-864637Y93666D01*
X-865896Y93129D01*
X-868014Y94352D01*
X-870377Y94985D01*
X-872823D01*
X-875186Y94352D01*
X-877304Y93129D01*
X-878593Y91840D01*
X-879863Y92366D01*
Y150548D01*
X-880159Y152035D01*
X-881001Y153295D01*
X-964454Y236748D01*
X-963910Y238777D01*
Y241223D01*
X-964543Y243586D01*
X-965766Y245704D01*
X-967496Y247434D01*
X-969614Y248657D01*
X-971977Y249290D01*
X-974423D01*
X-976786Y248657D01*
X-978904Y247434D01*
X-980634Y245704D01*
X-981857Y243586D01*
X-982490Y241223D01*
Y238777D01*
X-981857Y236414D01*
X-980634Y234296D01*
X-978904Y232566D01*
X-976786Y231343D01*
X-974423Y230710D01*
X-971977D01*
X-969948Y231254D01*
X-887633Y148939D01*
Y90590D01*
X-888903Y90250D01*
X-889566Y91399D01*
X-891296Y93129D01*
X-893414Y94352D01*
X-895777Y94985D01*
X-898223D01*
X-900253Y94441D01*
X-907358Y101547D01*
X-908618Y102389D01*
X-910105Y102685D01*
X-953344D01*
X-954831Y102389D01*
X-955250Y102109D01*
X-1012545Y186806D01*
Y276357D01*
X-1010971Y277266D01*
X-1009316Y278921D01*
X-1008146Y280949D01*
X-1007540Y283210D01*
Y285550D01*
X-1008146Y287811D01*
X-1009316Y289839D01*
X-1010971Y291494D01*
X-1012915Y292616D01*
X-1013026Y292986D01*
X-1013114Y294010D01*
X-1012489Y294427D01*
X-998123Y308794D01*
X-996853Y308268D01*
Y226816D01*
X-996557Y225329D01*
X-995715Y224069D01*
X-957192Y185546D01*
X-957662Y183790D01*
Y181450D01*
X-957056Y179189D01*
X-955886Y177161D01*
X-954231Y175506D01*
X-952203Y174336D01*
X-949942Y173730D01*
X-947602D01*
X-945341Y174336D01*
X-943313Y175506D01*
X-941658Y177161D01*
X-940488Y179189D01*
X-939882Y181450D01*
Y183790D01*
X-940488Y186051D01*
X-941658Y188079D01*
X-943313Y189734D01*
X-945341Y190904D01*
X-947602Y191510D01*
X-949942D01*
X-951698Y191040D01*
X-989083Y228425D01*
Y382718D01*
X-989379Y384204D01*
X-990221Y385465D01*
X-994460Y389703D01*
Y395790D01*
X-999277D01*
X-999763Y396963D01*
X-998471Y398255D01*
X-989719D01*
X-985775Y394311D01*
D02*
G37*
G36*
X-559973Y169973D02*
Y123416D01*
X-569970Y113419D01*
X-571143Y113905D01*
Y172538D01*
X-571439Y174025D01*
X-572281Y175285D01*
X-577603Y180607D01*
Y185944D01*
X-576430Y186430D01*
X-559973Y169973D01*
D02*
G37*
G36*
X-497922Y107922D02*
X-498408Y106749D01*
X-563994D01*
X-564480Y107922D01*
X-553341Y119060D01*
X-552499Y120321D01*
X-552203Y121807D01*
Y160544D01*
X-551030Y161030D01*
X-497922Y107922D01*
D02*
G37*
G36*
X-661095Y271095D02*
Y263371D01*
X-660799Y261884D01*
X-659957Y260624D01*
X-648214Y248881D01*
X-648380Y247622D01*
X-648704Y247434D01*
X-650434Y245704D01*
X-651657Y243586D01*
X-652290Y241223D01*
Y238777D01*
X-651657Y236414D01*
X-650434Y234296D01*
X-648704Y232566D01*
X-646586Y231343D01*
X-644223Y230710D01*
X-641777D01*
X-639414Y231343D01*
X-637443Y232482D01*
X-636189Y232108D01*
X-636173Y232101D01*
Y93594D01*
X-636189Y93588D01*
X-637443Y93214D01*
X-639414Y94352D01*
X-641777Y94985D01*
X-644223D01*
X-646586Y94352D01*
X-648704Y93129D01*
X-650434Y91399D01*
X-651657Y89281D01*
X-652290Y86918D01*
Y84472D01*
X-651657Y82109D01*
X-650434Y79991D01*
X-648704Y78261D01*
X-646885Y77211D01*
Y50000D01*
X-663392D01*
X-664516Y51123D01*
Y77211D01*
X-662696Y78261D01*
X-660966Y79991D01*
X-659743Y82109D01*
X-659110Y84472D01*
Y86918D01*
X-659743Y89281D01*
X-660966Y91399D01*
X-662696Y93129D01*
X-664814Y94352D01*
X-667177Y94985D01*
X-669623D01*
X-671986Y94352D01*
X-674104Y93129D01*
X-675834Y91399D01*
X-677057Y89281D01*
X-677690Y86918D01*
Y84472D01*
X-677057Y82109D01*
X-675834Y79991D01*
X-674104Y78261D01*
X-672285Y77211D01*
Y50000D01*
X-681809D01*
X-682295Y51173D01*
X-680341Y53127D01*
X-679499Y54387D01*
X-679203Y55874D01*
Y178979D01*
X-654941Y203241D01*
X-654099Y204501D01*
X-653803Y205988D01*
Y250438D01*
X-654099Y251925D01*
X-654941Y253185D01*
X-665487Y263731D01*
Y273828D01*
X-664314Y274314D01*
X-661095Y271095D01*
D02*
G37*
G36*
X-686989Y77803D02*
X-686973Y77796D01*
Y57483D01*
X-694456Y50000D01*
X-711515D01*
Y62486D01*
X-697053Y76949D01*
X-695023Y76405D01*
X-692577D01*
X-690214Y77038D01*
X-688243Y78177D01*
X-686989Y77803D01*
D02*
G37*
G36*
X-927210Y93645D02*
X-928104Y93129D01*
X-929834Y91399D01*
X-931057Y89281D01*
X-931690Y86918D01*
Y84472D01*
X-931057Y82109D01*
X-930957Y81937D01*
X-931184Y80795D01*
Y68701D01*
X-932399Y68329D01*
X-936759Y74775D01*
Y78539D01*
X-937055Y80026D01*
X-937897Y81286D01*
X-939054Y82443D01*
X-938510Y84472D01*
Y86918D01*
X-939143Y89281D01*
X-940366Y91399D01*
X-942096Y93129D01*
X-942990Y93645D01*
X-942650Y94915D01*
X-927550D01*
X-927210Y93645D01*
D02*
G37*
G36*
X-626042Y236042D02*
X-625034Y234296D01*
X-623304Y232566D01*
X-621558Y231558D01*
X-606709Y216709D01*
Y102080D01*
X-614348Y94441D01*
X-616377Y94985D01*
X-618823D01*
X-621186Y94352D01*
X-623304Y93129D01*
X-625034Y91399D01*
X-626257Y89281D01*
X-626890Y86918D01*
Y84472D01*
X-626257Y82109D01*
X-625034Y79991D01*
X-623304Y78261D01*
X-621186Y77038D01*
X-618823Y76405D01*
X-616377D01*
X-614014Y77038D01*
X-611896Y78261D01*
X-610166Y79991D01*
X-608943Y82109D01*
X-608310Y84472D01*
Y86918D01*
X-608854Y88948D01*
X-600077Y97725D01*
X-599235Y98985D01*
X-598939Y100471D01*
Y207280D01*
X-597766Y207766D01*
X-596085Y206085D01*
Y164122D01*
X-595789Y162636D01*
X-594947Y161375D01*
X-593718Y160146D01*
X-594188Y158390D01*
Y156050D01*
X-593582Y153789D01*
X-592412Y151761D01*
X-590757Y150106D01*
X-588729Y148936D01*
X-586468Y148330D01*
X-584128D01*
X-581867Y148936D01*
X-580182Y149908D01*
X-578912Y149387D01*
Y104477D01*
X-588948Y94441D01*
X-590977Y94985D01*
X-593423D01*
X-595786Y94352D01*
X-597904Y93129D01*
X-599634Y91399D01*
X-600857Y89281D01*
X-601490Y86918D01*
Y84472D01*
X-600857Y82109D01*
X-599634Y79991D01*
X-597904Y78261D01*
X-595786Y77038D01*
X-593423Y76405D01*
X-590977D01*
X-588614Y77038D01*
X-586496Y78261D01*
X-584766Y79991D01*
X-583543Y82109D01*
X-582910Y84472D01*
Y86918D01*
X-583454Y88947D01*
X-573419Y98979D01*
X-491657D01*
X-488750Y96072D01*
X-489221Y95256D01*
X-489459Y94985D01*
X-491823D01*
X-494186Y94352D01*
X-496304Y93129D01*
X-498034Y91399D01*
X-499257Y89281D01*
X-499890Y86918D01*
Y84472D01*
X-499257Y82109D01*
X-498034Y79991D01*
X-496304Y78261D01*
X-494186Y77038D01*
X-491823Y76405D01*
X-489377D01*
X-487014Y77038D01*
X-484896Y78261D01*
X-483166Y79991D01*
X-481943Y82109D01*
X-481310Y84472D01*
Y85567D01*
X-481233Y85683D01*
X-480040Y86242D01*
X-480000Y86208D01*
Y50000D01*
X-512116D01*
Y77211D01*
X-510296Y78261D01*
X-508566Y79991D01*
X-507343Y82109D01*
X-506710Y84472D01*
Y86918D01*
X-507343Y89281D01*
X-508566Y91399D01*
X-510296Y93129D01*
X-512414Y94352D01*
X-514777Y94985D01*
X-517223D01*
X-519586Y94352D01*
X-521704Y93129D01*
X-523434Y91399D01*
X-524657Y89281D01*
X-525290Y86918D01*
Y84472D01*
X-524657Y82109D01*
X-523434Y79991D01*
X-521704Y78261D01*
X-519885Y77211D01*
Y50000D01*
X-537516D01*
Y77211D01*
X-535696Y78261D01*
X-533966Y79991D01*
X-532743Y82109D01*
X-532110Y84472D01*
Y86918D01*
X-532743Y89281D01*
X-533966Y91399D01*
X-535696Y93129D01*
X-537814Y94352D01*
X-540177Y94985D01*
X-542623D01*
X-544986Y94352D01*
X-547104Y93129D01*
X-548834Y91399D01*
X-550057Y89281D01*
X-550690Y86918D01*
Y84472D01*
X-550057Y82109D01*
X-548834Y79991D01*
X-547104Y78261D01*
X-545285Y77211D01*
Y50000D01*
X-628403D01*
Y236744D01*
X-627230Y237230D01*
X-626042Y236042D01*
D02*
G37*
G36*
X-877304Y78261D02*
X-875186Y77038D01*
X-872823Y76405D01*
X-870377D01*
X-868014Y77038D01*
X-865896Y78261D01*
X-865281Y78877D01*
X-864011Y78351D01*
Y70126D01*
X-863715Y68639D01*
X-862873Y67379D01*
X-846667Y51173D01*
X-847153Y50000D01*
X-859906D01*
X-879863Y69957D01*
Y79024D01*
X-878593Y79550D01*
X-877304Y78261D01*
D02*
G37*
G36*
X-905746Y88948D02*
X-906290Y86918D01*
Y84472D01*
X-905657Y82109D01*
X-904434Y79991D01*
X-902704Y78261D01*
X-900586Y77038D01*
X-898223Y76405D01*
X-895777D01*
X-893414Y77038D01*
X-891296Y78261D01*
X-889566Y79991D01*
X-888903Y81140D01*
X-887633Y80800D01*
Y68348D01*
X-887337Y66861D01*
X-886495Y65601D01*
X-872067Y51173D01*
X-872553Y50000D01*
X-920000D01*
X-923415Y55049D01*
Y76405D01*
X-921177D01*
X-918814Y77038D01*
X-916696Y78261D01*
X-914966Y79991D01*
X-913743Y82109D01*
X-913110Y84472D01*
Y86918D01*
X-913743Y89281D01*
X-914966Y91399D01*
X-916696Y93129D01*
X-917590Y93645D01*
X-917250Y94915D01*
X-911714D01*
X-905746Y88948D01*
D02*
G37*
%LPC*%
G36*
X-989049Y475040D02*
X-992351D01*
X-995540Y474185D01*
X-998400Y472535D01*
X-1000734Y470200D01*
X-1002385Y467340D01*
X-1003240Y464151D01*
Y460849D01*
X-1002385Y457660D01*
X-1000734Y454800D01*
X-998400Y452466D01*
X-995540Y450815D01*
X-992351Y449960D01*
X-989049D01*
X-985860Y450815D01*
X-983000Y452466D01*
X-980665Y454800D01*
X-979014Y457660D01*
X-978160Y460849D01*
Y464151D01*
X-979014Y467340D01*
X-980665Y470200D01*
X-983000Y472535D01*
X-985860Y474185D01*
X-989049Y475040D01*
D02*
G37*
G36*
Y550040D02*
X-992351D01*
X-995540Y549186D01*
X-998400Y547535D01*
X-1000734Y545200D01*
X-1002385Y542340D01*
X-1003240Y539151D01*
Y535849D01*
X-1002385Y532660D01*
X-1000734Y529800D01*
X-998400Y527466D01*
X-995540Y525815D01*
X-992351Y524960D01*
X-989049D01*
X-985860Y525815D01*
X-983000Y527466D01*
X-980665Y529800D01*
X-979014Y532660D01*
X-978160Y535849D01*
Y539151D01*
X-979014Y542340D01*
X-980665Y545200D01*
X-983000Y547535D01*
X-985860Y549186D01*
X-989049Y550040D01*
D02*
G37*
G36*
X-1090649D02*
X-1093951D01*
X-1097140Y549186D01*
X-1099999Y547535D01*
X-1102334Y545200D01*
X-1103985Y542340D01*
X-1104840Y539151D01*
Y535849D01*
X-1103985Y532660D01*
X-1102334Y529800D01*
X-1099999Y527466D01*
X-1097140Y525815D01*
X-1093951Y524960D01*
X-1090649D01*
X-1087459Y525815D01*
X-1084600Y527466D01*
X-1082265Y529800D01*
X-1080614Y532660D01*
X-1079760Y535849D01*
Y539151D01*
X-1080614Y542340D01*
X-1082265Y545200D01*
X-1084600Y547535D01*
X-1087459Y549186D01*
X-1090649Y550040D01*
D02*
G37*
G36*
X-504322Y455190D02*
X-506478D01*
X-508561Y454632D01*
X-510429Y453554D01*
X-511953Y452029D01*
X-513032Y450161D01*
X-513590Y448078D01*
Y445922D01*
X-513032Y443839D01*
X-511953Y441971D01*
X-510429Y440446D01*
X-508561Y439368D01*
X-506478Y438810D01*
X-504322D01*
X-502239Y439368D01*
X-500371Y440446D01*
X-498846Y441971D01*
X-497768Y443839D01*
X-497210Y445922D01*
Y448078D01*
X-497768Y450161D01*
X-498846Y452029D01*
X-500371Y453554D01*
X-502239Y454632D01*
X-504322Y455190D01*
D02*
G37*
G36*
X-361378Y431940D02*
X-364022D01*
X-366575Y431256D01*
X-368865Y429934D01*
X-370734Y428065D01*
X-372056Y425775D01*
X-372740Y423222D01*
Y420578D01*
X-372056Y418025D01*
X-370734Y415736D01*
X-368865Y413866D01*
X-366575Y412544D01*
X-364022Y411860D01*
X-361378D01*
X-358825Y412544D01*
X-356535Y413866D01*
X-354666Y415736D01*
X-353344Y418025D01*
X-352660Y420578D01*
Y423222D01*
X-353344Y425775D01*
X-354666Y428065D01*
X-356535Y429934D01*
X-358825Y431256D01*
X-361378Y431940D01*
D02*
G37*
G36*
X-914012Y300540D02*
X-916788D01*
X-919468Y299822D01*
X-921872Y298434D01*
X-923834Y296472D01*
X-925222Y294068D01*
X-925940Y291388D01*
Y288612D01*
X-925222Y285932D01*
X-923834Y283528D01*
X-921872Y281566D01*
X-919468Y280178D01*
X-916788Y279460D01*
X-914012D01*
X-911332Y280178D01*
X-908928Y281566D01*
X-906966Y283528D01*
X-905578Y285932D01*
X-904860Y288612D01*
Y291388D01*
X-905578Y294068D01*
X-906966Y296472D01*
X-908928Y298434D01*
X-911332Y299822D01*
X-914012Y300540D01*
D02*
G37*
G36*
X-702413D02*
X-705188D01*
X-707868Y299822D01*
X-710272Y298434D01*
X-712234Y296472D01*
X-713622Y294068D01*
X-714340Y291388D01*
Y288612D01*
X-713622Y285932D01*
X-712234Y283528D01*
X-710272Y281566D01*
X-707868Y280178D01*
X-705188Y279460D01*
X-702413D01*
X-699732Y280178D01*
X-697328Y281566D01*
X-695366Y283528D01*
X-693979Y285932D01*
X-693260Y288612D01*
Y291388D01*
X-693979Y294068D01*
X-695366Y296472D01*
X-697328Y298434D01*
X-699732Y299822D01*
X-702413Y300540D01*
D02*
G37*
G36*
X-727813D02*
X-730588D01*
X-733269Y299822D01*
X-735672Y298434D01*
X-737634Y296472D01*
X-739022Y294068D01*
X-739740Y291388D01*
Y288612D01*
X-739022Y285932D01*
X-737634Y283528D01*
X-735672Y281566D01*
X-733269Y280178D01*
X-730588Y279460D01*
X-727813D01*
X-725132Y280178D01*
X-722729Y281566D01*
X-720766Y283528D01*
X-719379Y285932D01*
X-718660Y288612D01*
Y291388D01*
X-719379Y294068D01*
X-720766Y296472D01*
X-722729Y298434D01*
X-725132Y299822D01*
X-727813Y300540D01*
D02*
G37*
G36*
X-753213D02*
X-755988D01*
X-758669Y299822D01*
X-761072Y298434D01*
X-763034Y296472D01*
X-764422Y294068D01*
X-765140Y291388D01*
Y288612D01*
X-764422Y285932D01*
X-763034Y283528D01*
X-761072Y281566D01*
X-758669Y280178D01*
X-755988Y279460D01*
X-753213D01*
X-750532Y280178D01*
X-748129Y281566D01*
X-746166Y283528D01*
X-744779Y285932D01*
X-744060Y288612D01*
Y291388D01*
X-744779Y294068D01*
X-746166Y296472D01*
X-748129Y298434D01*
X-750532Y299822D01*
X-753213Y300540D01*
D02*
G37*
G36*
X-778613D02*
X-781388D01*
X-784069Y299822D01*
X-786472Y298434D01*
X-788434Y296472D01*
X-789822Y294068D01*
X-790540Y291388D01*
Y288612D01*
X-789822Y285932D01*
X-788434Y283528D01*
X-786472Y281566D01*
X-784069Y280178D01*
X-781388Y279460D01*
X-778613D01*
X-775932Y280178D01*
X-773529Y281566D01*
X-771566Y283528D01*
X-770179Y285932D01*
X-769460Y288612D01*
Y291388D01*
X-770179Y294068D01*
X-771566Y296472D01*
X-773529Y298434D01*
X-775932Y299822D01*
X-778613Y300540D01*
D02*
G37*
G36*
X-801400Y300597D02*
X-809400D01*
X-811107Y300372D01*
X-812698Y299713D01*
X-814065Y298664D01*
X-815113Y297298D01*
X-815772Y295707D01*
X-815997Y294000D01*
Y286000D01*
X-815772Y284293D01*
X-815113Y282702D01*
X-814065Y281336D01*
X-812698Y280287D01*
X-811107Y279628D01*
X-809400Y279404D01*
X-801400D01*
X-799693Y279628D01*
X-798102Y280287D01*
X-796736Y281336D01*
X-795687Y282702D01*
X-795029Y284293D01*
X-794804Y286000D01*
Y294000D01*
X-795029Y295707D01*
X-795687Y297298D01*
X-796736Y298664D01*
X-798102Y299713D01*
X-799693Y300372D01*
X-801400Y300597D01*
D02*
G37*
G36*
X-1013960Y345790D02*
X-1025540D01*
Y334210D01*
X-1023634D01*
Y325073D01*
X-1025208Y324164D01*
X-1026864Y322509D01*
X-1028034Y320481D01*
X-1028640Y318220D01*
Y315880D01*
X-1028034Y313619D01*
X-1026864Y311591D01*
X-1025208Y309936D01*
X-1023181Y308766D01*
X-1020920Y308160D01*
X-1018579D01*
X-1016318Y308766D01*
X-1014291Y309936D01*
X-1012636Y311591D01*
X-1011466Y313619D01*
X-1010860Y315880D01*
Y318220D01*
X-1011466Y320481D01*
X-1012636Y322509D01*
X-1014291Y324164D01*
X-1015865Y325073D01*
Y334210D01*
X-1013960D01*
Y345790D01*
D02*
G37*
G36*
X-844977Y249290D02*
X-847423D01*
X-849786Y248657D01*
X-851904Y247434D01*
X-853634Y245704D01*
X-854857Y243586D01*
X-855490Y241223D01*
Y238777D01*
X-854857Y236414D01*
X-853634Y234296D01*
X-851904Y232566D01*
X-849786Y231343D01*
X-847423Y230710D01*
X-844977D01*
X-842614Y231343D01*
X-840496Y232566D01*
X-838766Y234296D01*
X-837543Y236414D01*
X-836910Y238777D01*
Y241223D01*
X-837543Y243586D01*
X-838766Y245704D01*
X-840496Y247434D01*
X-842614Y248657D01*
X-844977Y249290D01*
D02*
G37*
G36*
X-870377D02*
X-872823D01*
X-875186Y248657D01*
X-877304Y247434D01*
X-879034Y245704D01*
X-880257Y243586D01*
X-880890Y241223D01*
Y238777D01*
X-880257Y236414D01*
X-879034Y234296D01*
X-877304Y232566D01*
X-875186Y231343D01*
X-872823Y230710D01*
X-870377D01*
X-868014Y231343D01*
X-865896Y232566D01*
X-864166Y234296D01*
X-862943Y236414D01*
X-862310Y238777D01*
Y241223D01*
X-862943Y243586D01*
X-864166Y245704D01*
X-865896Y247434D01*
X-868014Y248657D01*
X-870377Y249290D01*
D02*
G37*
G36*
X-895777D02*
X-898223D01*
X-900586Y248657D01*
X-902704Y247434D01*
X-904434Y245704D01*
X-905657Y243586D01*
X-906290Y241223D01*
Y238777D01*
X-905657Y236414D01*
X-904434Y234296D01*
X-902704Y232566D01*
X-900586Y231343D01*
X-898223Y230710D01*
X-895777D01*
X-893414Y231343D01*
X-891296Y232566D01*
X-889566Y234296D01*
X-888343Y236414D01*
X-887710Y238777D01*
Y241223D01*
X-888343Y243586D01*
X-889566Y245704D01*
X-891296Y247434D01*
X-893414Y248657D01*
X-895777Y249290D01*
D02*
G37*
G36*
X-717977Y94985D02*
X-720423D01*
X-722786Y94352D01*
X-724904Y93129D01*
X-726634Y91399D01*
X-727857Y89281D01*
X-728490Y86918D01*
Y84472D01*
X-727857Y82109D01*
X-726634Y79991D01*
X-724904Y78261D01*
X-722786Y77038D01*
X-720423Y76405D01*
X-717977D01*
X-715614Y77038D01*
X-713496Y78261D01*
X-711766Y79991D01*
X-710543Y82109D01*
X-709910Y84472D01*
Y86918D01*
X-710543Y89281D01*
X-711766Y91399D01*
X-713496Y93129D01*
X-715614Y94352D01*
X-717977Y94985D01*
D02*
G37*
G36*
X-565577D02*
X-568023D01*
X-570386Y94352D01*
X-572504Y93129D01*
X-574234Y91399D01*
X-575457Y89281D01*
X-576090Y86918D01*
Y84472D01*
X-575457Y82109D01*
X-574234Y79991D01*
X-572504Y78261D01*
X-570386Y77038D01*
X-568023Y76405D01*
X-565577D01*
X-563214Y77038D01*
X-561096Y78261D01*
X-559366Y79991D01*
X-558143Y82109D01*
X-557510Y84472D01*
Y86918D01*
X-558143Y89281D01*
X-559366Y91399D01*
X-561096Y93129D01*
X-563214Y94352D01*
X-565577Y94985D01*
D02*
G37*
%LPD*%
D16*
X-1040817Y680000D02*
G03*
X-1053383Y680000I-6283J-10000D01*
G01*
X-1051945Y153105D02*
G03*
X-1026590Y159233I11945J6095D01*
G01*
X-1230000Y640786D02*
X-1120786Y750000D01*
X-810794D01*
X-1006850Y739476D02*
X-1001406Y744920D01*
X-813588D02*
X-794848Y726180D01*
X-810794Y750000D02*
X-744048Y683254D01*
X-1001406Y744920D02*
X-813588D01*
X-1097100Y680000D02*
X-1053383D01*
X-1040817D02*
X-997350D01*
X-1107100Y670000D02*
X-1097100Y680000D01*
X-996606Y679256D02*
X-987350Y670000D01*
X-997350Y680000D02*
X-996606Y679256D01*
X-964520Y4520D02*
Y55874D01*
Y4520D02*
X-960000Y0D01*
X-753440D01*
X-744600Y8840D01*
X-1230000Y230000D02*
Y640786D01*
Y230000D02*
X-1160000Y160000D01*
X-1150975D01*
X-1145095Y154120D02*
X-1052960D01*
X-1052216Y153376D01*
X-1052216Y153376D02*
X-1051945Y153105D01*
X-1026590Y159233D02*
X-1026590Y160345D01*
X-1026590Y160349D01*
X-1150975Y160000D02*
X-1145095Y154120D01*
X-1026590Y160349D02*
Y196590D01*
X-1208367Y261637D02*
X-1201919Y268085D01*
X-1197204D02*
X-1192700Y272588D01*
X-1209840Y261637D02*
X-1208367D01*
X-1201919Y268085D02*
X-1197204D01*
X-1192700Y272588D02*
Y343050D01*
X-664600Y10000D02*
Y45714D01*
X-668400Y49514D02*
X-664600Y45714D01*
X-668400Y49514D02*
Y85695D01*
X-987350Y730000D02*
X-959500D01*
X-490500Y350000D02*
X-469500D01*
X-1119750Y290000D02*
Y340000D01*
X-969750D02*
X-950250D01*
Y390000D01*
X-1041500Y411750D02*
Y462500D01*
Y411750D02*
X-1019750Y390000D01*
X-420500Y258100D02*
Y260000D01*
X-530500Y350000D02*
X-518610Y361890D01*
X-497610D01*
Y357109D02*
Y361890D01*
Y357109D02*
X-490500Y350000D01*
X-325000Y595000D02*
X-220000Y700000D01*
X-325000Y580000D02*
Y595000D01*
X-1167300Y242450D02*
X-1119750Y290000D01*
X-1167300Y236950D02*
Y242450D01*
X-1190000Y475000D02*
X-1175594Y460594D01*
Y395844D02*
Y460594D01*
Y395844D02*
X-1119750Y340000D01*
X-930000Y610000D02*
X-899622Y579622D01*
X-890352D01*
X-1119750Y368802D02*
Y390000D01*
X-1112390Y466610D02*
X-1041500Y537500D01*
X-1112390Y377860D02*
Y466610D01*
Y377860D02*
X-1099522Y364992D01*
X-1051134D01*
X-1043006Y356864D01*
Y278124D02*
Y356864D01*
X-1053420Y267710D02*
X-1043006Y278124D01*
X-1053420Y198020D02*
Y267710D01*
Y198020D02*
X-1040000Y184600D01*
X-1100250Y390000D02*
X-1098270Y388020D01*
X-1092071D01*
X-1090091Y390000D01*
X-1069750D01*
X-944200Y261800D02*
X-922400Y240000D01*
X-944200Y261800D02*
Y333950D01*
X-950250Y340000D02*
X-944200Y333950D01*
X-388100Y516900D02*
X-325000Y580000D01*
X-388100Y498100D02*
Y516900D01*
X-325000Y580000D02*
X-287102Y542102D01*
Y403970D02*
Y542102D01*
Y403970D02*
X-273132Y390000D01*
X-259950D01*
X-250526Y296920D02*
X-246716Y293110D01*
X-250526Y296920D02*
Y331026D01*
X-259500Y340000D02*
X-250526Y331026D01*
X-810850Y381350D02*
X-799500Y370000D01*
X-810850Y381350D02*
Y413252D01*
X-886034Y488436D02*
X-810850Y413252D01*
X-992436Y488436D02*
X-886034D01*
X-1041500Y537500D02*
X-992436Y488436D01*
X-535400Y290000D02*
X-502690Y322711D01*
Y356810D01*
X-516310D02*
X-502690D01*
X-516310Y346196D02*
Y356810D01*
X-521390Y341116D02*
X-516310Y346196D01*
X-533482Y341116D02*
X-521390D01*
X-537546Y345180D02*
X-533482Y341116D01*
X-537546Y345180D02*
Y356864D01*
X-518447Y375963D01*
X-476463D01*
X-450500Y350000D01*
X-134194Y96260D02*
Y210000D01*
X-140050D02*
X-134194D01*
X-910105Y98800D02*
X-897000Y85695D01*
X-953344Y98800D02*
X-910105D01*
X-958424Y93720D02*
X-953344Y98800D01*
X-958424Y25724D02*
Y93720D01*
Y25724D02*
X-952700Y20000D01*
X-425024Y83052D02*
X-395400Y53428D01*
Y20000D02*
Y53428D01*
X-290404Y219096D02*
X-209500Y300000D01*
X-290404Y17266D02*
Y219096D01*
X-315042Y-7372D02*
X-290404Y17266D01*
X-696042Y-7372D02*
X-315042D01*
X-701884Y-1530D02*
X-696042Y-7372D01*
X-701884Y-1530D02*
Y37078D01*
X-683088Y55874D01*
Y180588D01*
X-657688Y205988D01*
Y250438D01*
X-669372Y262122D02*
X-657688Y250438D01*
X-669372Y262122D02*
Y291586D01*
X-695788Y318002D02*
X-669372Y291586D01*
X-747502Y318002D02*
X-695788D01*
X-759500Y330000D02*
X-747502Y318002D01*
X-880500Y380000D02*
X-849458Y348958D01*
Y336858D02*
Y348958D01*
Y336858D02*
X-842600Y330000D01*
X-759500D01*
X-899500Y380000D02*
X-893367Y386133D01*
Y388360D01*
X-888287Y393440D01*
X-840314D01*
X-840000Y393126D01*
Y340000D02*
Y393126D01*
X-365000Y340000D02*
Y357400D01*
X-454600Y447000D02*
X-365000Y357400D01*
X-329390Y325610D02*
X-315000Y340000D01*
X-435450Y325610D02*
X-329390D01*
X-446360Y314700D02*
X-435450Y325610D01*
X-446360Y289596D02*
Y314700D01*
X-295530Y335530D02*
X-260000Y300000D01*
X-295530Y335530D02*
Y354017D01*
X-337300Y395787D02*
X-295530Y354017D01*
X-337300Y395787D02*
Y421900D01*
X-728046Y667760D02*
X-718700Y658414D01*
Y607800D02*
Y658414D01*
X-1000250Y390000D02*
X-992968Y382718D01*
Y226816D02*
Y382718D01*
Y226816D02*
X-948772Y182620D01*
X-240050Y390000D02*
X-239096D01*
X-602378Y282222D02*
X-594600Y290000D01*
X-602378Y272378D02*
Y282222D01*
X-617600Y257156D02*
X-602378Y272378D01*
X-617600Y240000D02*
Y257156D01*
X-592200Y85695D02*
X-575031Y102864D01*
X-490048D02*
X-445090Y57906D01*
Y22092D02*
Y57906D01*
Y22092D02*
X-431120Y8122D01*
X-356478D01*
X-344600Y20000D01*
X-439502Y38702D02*
X-420800Y20000D01*
X-439502Y38702D02*
Y125724D01*
X-430000Y135226D01*
Y140000D01*
X-649500Y350000D02*
X-645400Y345900D01*
Y290000D02*
Y345900D01*
X-774528Y395028D02*
X-749500Y370000D01*
X-774528Y395028D02*
Y439160D01*
X-790276Y454908D02*
X-774528Y439160D01*
X-790276Y454908D02*
Y460750D01*
X-430000Y140000D02*
Y172460D01*
X-413594Y188866D01*
Y226816D01*
X-438740Y251962D02*
X-413594Y226816D01*
X-471760Y251962D02*
X-438740D01*
X-484600Y264802D02*
X-471760Y251962D01*
X-484600Y264802D02*
Y290000D01*
X-365188Y169412D02*
X-352700Y181900D01*
X-386416Y169412D02*
X-365188D01*
X-389464Y172460D02*
X-386416Y169412D01*
X-389464Y172460D02*
Y222752D01*
X-395560Y228848D02*
X-389464Y222752D01*
X-408348Y228848D02*
X-395560D01*
X-439500Y260000D02*
X-408348Y228848D01*
X-450500Y240000D02*
X-420500Y210000D01*
X-490600Y240000D02*
X-450500D01*
X-630500Y350000D02*
X-608158Y327658D01*
Y277870D02*
Y327658D01*
X-632288Y253740D02*
X-608158Y277870D01*
X-632288Y17520D02*
Y253740D01*
Y17520D02*
X-615778Y1010D01*
X-338918D01*
X-332568Y7360D01*
Y105268D01*
X-337300Y110000D02*
X-332568Y105268D01*
X-160102Y50102D02*
X-130000Y20000D01*
X-160102Y210000D02*
X-159950D01*
X-470490Y469510D02*
X-360000Y580000D01*
X-470490Y442970D02*
Y469510D01*
X-542626Y370834D02*
X-470490Y442970D01*
X-542626Y314622D02*
Y370834D01*
X-575900Y281348D02*
X-542626Y314622D01*
X-575900Y277362D02*
Y281348D01*
X-592200Y261062D02*
X-575900Y277362D01*
X-592200Y240000D02*
Y261062D01*
Y164122D02*
Y240000D01*
Y164122D02*
X-585298Y157220D01*
X-1068914Y313684D02*
X-1050250Y332348D01*
Y340000D01*
X-784688Y433064D02*
X-780500Y428876D01*
Y370000D02*
Y428876D01*
X-247000Y527000D02*
X-215000Y495000D01*
X-247000Y527000D02*
Y570000D01*
X-1118952Y683548D02*
X-1107100Y695400D01*
X-1118952Y662680D02*
Y683548D01*
Y662680D02*
X-1113872Y657600D01*
X-1081868D01*
X-1060532Y636264D01*
Y611880D02*
Y636264D01*
Y611880D02*
X-1054436Y605784D01*
X-1021066D01*
X-1006850Y620000D01*
X-999318Y599688D02*
X-959312D01*
X-949000Y610000D01*
X-930000Y680000D02*
X-880192Y630192D01*
Y533902D02*
Y630192D01*
X-920324Y493770D02*
X-880192Y533902D01*
X-939628Y493770D02*
X-920324D01*
X-951058Y505200D02*
X-939628Y493770D01*
X-951058Y505200D02*
Y531870D01*
X-1003382Y584194D02*
X-951058Y531870D01*
X-1046695Y584194D02*
X-1003382D01*
X-1107100Y644600D02*
X-1046695Y584194D01*
X-860126Y70126D02*
Y101848D01*
Y70126D02*
X-810000Y20000D01*
X-152246Y713988D02*
X-138258Y700000D01*
X-419690Y713988D02*
X-152246D01*
X-584282Y549396D02*
X-419690Y713988D01*
X-639654Y549396D02*
X-584282D01*
X-653370Y535680D02*
X-639654Y549396D01*
X-653370Y477130D02*
Y535680D01*
X-670500Y460000D02*
X-653370Y477130D01*
X-92796Y709500D02*
X-92792D01*
X-106000Y683000D02*
X-92792Y696208D01*
X-119716Y683000D02*
X-106000D01*
X-1006850Y730000D02*
Y739476D01*
X-794848Y555348D02*
Y726180D01*
Y555348D02*
X-769500Y530000D01*
X-1192700Y208909D02*
Y236950D01*
Y208909D02*
X-1142991Y159200D01*
X-1040000D01*
X-1000250Y312160D02*
Y340000D01*
X-1015236Y297174D02*
X-1000250Y312160D01*
X-1022686Y297174D02*
X-1015236D01*
X-1028020Y291840D02*
X-1022686Y297174D01*
X-1028020Y233674D02*
Y291840D01*
Y233674D02*
X-1021510Y227164D01*
Y43776D02*
Y227164D01*
Y43776D02*
X-968584Y-9150D01*
X-746080D01*
X-733888Y3042D01*
Y93720D01*
X-736428Y96260D02*
X-733888Y93720D01*
X-759435Y96260D02*
X-736428D01*
X-770000Y85695D02*
X-759435Y96260D01*
X-699500Y349500D02*
X-690000Y340000D01*
X-699500Y349500D02*
Y390000D01*
X-587364Y356864D02*
X-580500Y350000D01*
X-623636Y356864D02*
X-587364D01*
X-630500Y350000D02*
X-623636Y356864D01*
X-689500Y460000D02*
Y471226D01*
X-707472Y489198D02*
X-689500Y471226D01*
X-737952Y489198D02*
X-707472D01*
X-753954Y505200D02*
X-737952Y489198D01*
X-753954Y505200D02*
Y613912D01*
X-744048Y623818D01*
Y683254D01*
X-1040000Y210000D02*
X-1026590Y196590D01*
X-132434Y700000D02*
X-110000D01*
X-161372Y671062D02*
X-132434Y700000D01*
X-161372Y558032D02*
Y671062D01*
X-177374Y542030D02*
X-161372Y558032D01*
X-177374Y267226D02*
Y542030D01*
X-214600Y230000D02*
X-177374Y267226D01*
X-227300Y230000D02*
X-220554Y220720D01*
X-210394D01*
X-172294Y258820D01*
Y331464D01*
X-153758Y350000D01*
X-122700D01*
X-110000Y719000D02*
X-70440Y715952D01*
Y705792D02*
Y715952D01*
X-98888Y677344D02*
X-70440Y705792D01*
X-98888Y439668D02*
Y677344D01*
X-122700Y415856D02*
X-98888Y439668D01*
X-122700Y350000D02*
Y415856D01*
X-439500Y210000D02*
X-435894D01*
X-423754Y197860D01*
X-215474Y205734D02*
X-167214Y253994D01*
Y283776D01*
X-110000Y340990D01*
Y350000D01*
X-209500Y340000D02*
X-183470Y366030D01*
Y413760D01*
X-215982Y446272D02*
X-183470Y413760D01*
X-821010Y389490D02*
Y399790D01*
X-830500Y380000D02*
X-821010Y389490D01*
X-859000Y325114D02*
Y340000D01*
Y325114D02*
X-851380Y317494D01*
X-311900Y411400D02*
Y421900D01*
Y411400D02*
X-240500Y340000D01*
X-221390Y349110D02*
X-190500Y380000D01*
X-221390Y306105D02*
Y349110D01*
X-234385Y293110D02*
X-221390Y306105D01*
X-300610Y309412D02*
X-284308Y293110D01*
X-300610Y309412D02*
Y350880D01*
X-323612Y373882D02*
X-300610Y350880D01*
X-340082Y373882D02*
X-323612D01*
X-388100Y421900D02*
X-340082Y373882D01*
X-446702Y267202D02*
X-439500Y260000D01*
X-462870Y267202D02*
X-446702D01*
X-902798Y306826D02*
X-887558Y322066D01*
Y386810D01*
X-873588D01*
X-866778Y380000D01*
X-849500D01*
X-439500Y310000D02*
X-398988Y269488D01*
X-369652D01*
X-366604Y266440D01*
Y193396D02*
Y266440D01*
X-378100Y181900D02*
X-366604Y193396D01*
X-190500Y340000D02*
X-183470Y332970D01*
Y291840D02*
Y332970D01*
X-191852Y283458D02*
X-183470Y291840D01*
X-204044Y283458D02*
X-191852D01*
X-262718Y224784D02*
X-204044Y283458D01*
X-262718Y193288D02*
Y224784D01*
X-550000Y20000D02*
X-541400Y28600D01*
Y85695D01*
X-524600Y20000D02*
X-516000Y28600D01*
Y85695D01*
X-592200D02*
X-575028Y102864D01*
X-581488Y178999D02*
X-575028Y172538D01*
X-581488Y178999D02*
Y250013D01*
X-570340Y261160D01*
Y279210D01*
X-509500Y340051D01*
Y350000D01*
X-556088Y121807D02*
Y266440D01*
X-561676Y272028D02*
X-556088Y266440D01*
X-643464Y272028D02*
X-633558Y281934D01*
Y304032D01*
X-637368Y307842D02*
X-633558Y304032D01*
X-637368Y307842D02*
Y386074D01*
X-735412Y484118D02*
X-637368Y386074D01*
X-774782Y484118D02*
X-735412D01*
X-824566Y533902D02*
X-774782Y484118D01*
X-824566Y533902D02*
Y667506D01*
X-896448Y739388D02*
X-824566Y667506D01*
X-991190Y739388D02*
X-896448D01*
X-996778Y733800D02*
X-991190Y739388D01*
X-996778Y708400D02*
Y733800D01*
X-1009778Y695400D02*
X-996778Y708400D01*
X-1047100Y695400D02*
X-1009778D01*
X-617600Y85695D02*
X-602824Y100471D01*
Y260598D01*
X-581635Y281787D01*
Y296842D01*
X-549500Y328978D01*
Y350000D01*
X-643000Y14682D02*
Y85695D01*
X-659720Y-2038D02*
X-643000Y14682D01*
X-677962Y-2038D02*
X-659720D01*
X-690000Y10000D02*
X-677962Y-2038D01*
X-1016430Y107784D02*
Y284380D01*
Y107784D02*
X-964520Y55874D01*
X-744600Y8840D02*
Y85695D01*
X-679532Y201563D02*
Y269996D01*
X-795400Y85695D02*
X-679532Y201563D01*
X-831424Y96319D02*
X-820800Y85695D01*
X-831424Y96319D02*
Y256824D01*
X-864600Y290000D02*
X-831424Y256824D01*
X-927300Y80795D02*
X-922400Y85695D01*
X-927300Y20000D02*
Y80795D01*
X-947800Y85695D02*
X-940644Y78539D01*
Y14726D02*
Y78539D01*
Y14726D02*
X-934040Y8122D01*
X-796478D01*
X-784600Y20000D01*
X-883748Y68348D02*
X-835400Y20000D01*
X-883748Y68348D02*
Y150548D01*
X-973200Y240000D02*
X-883748Y150548D01*
X-633380Y416554D02*
X-573690Y356864D01*
Y343148D02*
Y356864D01*
X-592648Y343148D02*
X-573690D01*
X-599500Y350000D02*
X-592648Y343148D01*
X-744600Y240000D02*
X-723288Y218688D01*
X-402418Y148292D02*
Y218688D01*
X-410000Y140710D02*
X-402418Y148292D01*
X-410000Y130500D02*
Y140710D01*
X-285070Y347720D02*
Y359097D01*
X-324694Y398721D02*
X-285070Y359097D01*
X-324694Y398721D02*
Y455670D01*
X-339680Y470656D02*
X-324694Y455670D01*
X-385400Y470656D02*
X-339680D01*
X-399624Y484880D02*
X-385400Y470656D01*
X-399624Y484880D02*
Y520440D01*
X-350094Y569970D01*
Y674906D01*
X-325000Y700000D01*
X-643000Y240000D02*
Y249161D01*
X-657210Y263371D02*
X-643000Y249161D01*
X-657210Y263371D02*
Y314954D01*
X-586568D02*
X-568610Y332912D01*
Y416478D01*
X-467188Y517900D01*
Y607812D01*
X-375000Y700000D01*
X-350000Y110000D02*
Y160522D01*
X-338664Y171858D01*
Y301238D01*
X-305690Y334212D01*
Y345800D01*
X-309200Y349310D02*
X-305690Y345800D01*
X-339680Y349310D02*
X-309200D01*
X-355682Y333308D02*
X-339680Y349310D01*
X-355682Y330690D02*
Y333308D01*
X-374310Y330690D02*
X-355682D01*
X-429948Y386328D02*
X-374310Y330690D01*
X-509098Y386328D02*
X-429948D01*
X-799500Y370000D02*
X-792460Y362960D01*
X-743540D01*
X-738460Y368040D01*
Y442452D01*
X-731602Y449310D01*
X-710520D01*
X-680500Y419290D01*
Y390000D02*
Y419290D01*
X-117176Y252824D02*
X-110000Y260000D01*
X-117176Y12440D02*
Y252824D01*
X-122256Y7360D02*
X-117176Y12440D01*
X-165944Y7360D02*
X-122256D01*
X-240000Y81416D02*
X-165944Y7360D01*
X-240000Y81416D02*
Y230000D01*
X-79200Y20000D02*
X-28022Y71178D01*
Y393022D01*
X-60000Y425000D02*
X-28022Y393022D01*
X-74758Y364758D02*
X-40000Y330000D01*
X-74758Y364758D02*
Y460242D01*
X-60000Y475000D01*
X-1167300Y295484D02*
Y343050D01*
Y295484D02*
X-1167212Y295396D01*
X-203282Y666718D02*
X-170000Y700000D01*
X-203282Y479800D02*
Y666718D01*
X-228936Y454146D02*
X-203282Y479800D01*
X-228936Y312064D02*
Y454146D01*
X-241000Y300000D02*
X-228936Y312064D01*
X-420500Y310000D02*
X-397680Y287180D01*
X-976810Y303622D02*
X-957408Y284220D01*
X-976810Y303622D02*
Y382940D01*
X-969750Y390000D01*
X-327300Y181900D02*
Y189994D01*
X-216310Y300984D01*
Y306826D01*
X-197326D01*
X-190500Y300000D01*
X-1057310Y397060D02*
X-1050250Y390000D01*
X-1107310Y397060D02*
X-1057310D01*
X-1107310Y382940D02*
Y397060D01*
Y382940D02*
X-1101554Y377184D01*
X-1020400D01*
X-1012390Y385194D01*
Y389830D01*
X-1000080Y402140D01*
X-988110D01*
X-981890Y395920D01*
Y290922D02*
Y395920D01*
Y290922D02*
X-937088Y246120D01*
Y235960D02*
Y246120D01*
Y235960D02*
X-930484Y229356D01*
X-915752D01*
X-911688Y233420D01*
Y247898D01*
X-878160Y281426D01*
Y296412D01*
X-868000Y306572D01*
X-856062D01*
X-800182Y250692D01*
X-704492D01*
X-693800Y240000D01*
X-218776Y389276D02*
X-209500Y380000D01*
X-218776Y389276D02*
Y420618D01*
X-967120Y611880D02*
X-949000Y630000D01*
X-998730Y611880D02*
X-967120D01*
X-1006850Y620000D02*
X-998730Y611880D01*
X-949000Y630000D02*
X-942190Y623190D01*
Y518176D02*
Y623190D01*
Y518176D02*
X-927944Y503930D01*
X-940000Y690000D02*
X-930000Y680000D01*
X-940000Y690000D02*
Y730000D01*
X-995486Y628136D02*
X-987350Y620000D01*
X-1038164Y628136D02*
X-995486D01*
X-1047100Y619200D02*
X-1038164Y628136D01*
X-930000Y610000D02*
Y627906D01*
X-960164Y647186D02*
X-949280D01*
X-987350Y620000D02*
X-960164Y647186D01*
X-930000Y627906D02*
Y630000D01*
X-949000Y649000D02*
X-930000Y630000D01*
X-949000Y649000D02*
Y680000D01*
X-959500Y690500D02*
X-949000Y680000D01*
X-959500Y690500D02*
Y730000D01*
X-1006850Y670000D02*
X-998768Y661918D01*
X-967082D01*
X-949000Y680000D01*
X-1047100Y720800D02*
X-1037900Y730000D01*
X-1006850D01*
X-50130Y247260D02*
X-37760D01*
X-30000Y239500D01*
X-1100250Y290000D02*
X-1085678Y275428D01*
Y234944D02*
Y275428D01*
X-1019750Y317050D02*
Y340000D01*
X-1057462Y347212D02*
X-1050250Y340000D01*
X-1093038Y347212D02*
X-1057462D01*
X-1100250Y340000D02*
X-1093038Y347212D01*
X-709000Y340000D02*
X-700972Y331972D01*
X-667528D01*
X-649500Y350000D01*
X-730500Y340000D02*
X-709000D01*
X-740500Y330000D02*
X-730500Y340000D01*
Y370000D01*
X-750500Y340000D02*
X-740500Y330000D01*
X-840000Y340000D02*
X-750500D01*
X-730500Y370000D02*
X-715000Y385500D01*
Y440000D01*
X-765000D02*
Y464000D01*
X-838500Y537500D02*
X-765000Y464000D01*
X-490500Y350000D02*
X-484600Y344100D01*
Y290000D02*
Y344100D01*
Y290000D02*
X-450500D01*
X-420500Y260000D01*
X-516000Y240000D02*
X-510000Y246000D01*
Y290000D01*
X-97300Y342696D02*
Y350000D01*
X-148164Y291832D02*
X-97300Y342696D01*
X-148164Y215640D02*
Y291832D01*
X-153804Y210000D02*
X-148164Y215640D01*
X-159950Y210000D02*
X-153804D01*
X-1077016Y332734D02*
X-1069750Y340000D01*
X-1112484Y332734D02*
X-1077016D01*
X-1119750Y340000D02*
X-1112484Y332734D01*
X-1026978Y382772D02*
X-1019750Y390000D01*
X-1062522Y382772D02*
X-1026978D01*
X-1069750Y390000D02*
X-1062522Y382772D01*
X-1019750Y390000D02*
X-1002530Y407220D01*
X-967470D01*
X-950250Y390000D01*
X-940250Y380000D01*
X-899500D01*
X-1203788Y488788D02*
X-1190000Y475000D01*
X-1203788Y488788D02*
Y611212D01*
X-1190000Y625000D01*
X-324600Y110000D02*
X-319200Y104600D01*
Y20000D02*
Y104600D01*
X-715400Y64096D02*
X-693800Y85695D01*
X-715400Y10000D02*
Y64096D01*
X-138258Y700000D02*
X-132434D01*
X-284308Y293110D02*
X-246716D01*
X-234385D01*
X-575031Y102864D02*
X-575028D01*
X-490048D01*
X-575031D02*
X-575028Y102868D01*
X-556088Y121807D01*
X-575028Y102864D02*
Y102868D01*
Y172538D01*
X-949280Y647186D02*
X-930000Y627906D01*
X-239096Y390000D02*
Y413760D01*
X-420500Y258100D02*
X-414864D01*
X-378100D01*
X-446360Y289596D02*
X-414864Y258100D01*
X-160102Y50102D02*
Y210000D01*
X-92792Y696208D02*
Y709500D01*
X-1242650Y18790D02*
Y21330D01*
Y18790D02*
X-1205820Y-18040D01*
X-45040D01*
X3220Y30220D01*
Y718560D01*
X-48850Y770630D02*
X3220Y718560D01*
X-1185500Y770630D02*
X-48850D01*
X-1242650Y713480D02*
X-1185500Y770630D01*
X-1242650Y21330D02*
Y713480D01*
Y16250D02*
Y21330D01*
D20*
X-92796Y709500D02*
D03*
X-110000Y700000D02*
D03*
D21*
Y719000D02*
D03*
D23*
X-140050Y210000D02*
D03*
X-159950D02*
D03*
X-240050Y390000D02*
D03*
X-259950D02*
D03*
D28*
X-247000Y570000D02*
D03*
X-133000D02*
D03*
D29*
X-215000Y495000D02*
D03*
X-190000D02*
D03*
D30*
X-165000D02*
D03*
D46*
X-838500Y537500D02*
D03*
D47*
Y462500D02*
D03*
X-1041500Y537500D02*
D03*
X-990700D02*
D03*
X-1092300D02*
D03*
Y462500D02*
D03*
X-1041500D02*
D03*
X-990700D02*
D03*
D49*
X-195000Y110000D02*
D03*
X-145000D02*
D03*
X-490600Y85695D02*
D03*
X-516000D02*
D03*
X-541400D02*
D03*
X-566800D02*
D03*
X-592200D02*
D03*
X-617600D02*
D03*
X-643000D02*
D03*
X-668400D02*
D03*
X-693800D02*
D03*
X-719200D02*
D03*
X-744600D02*
D03*
X-770000D02*
D03*
X-795400D02*
D03*
X-820800D02*
D03*
X-846200D02*
D03*
X-871600D02*
D03*
X-897000D02*
D03*
X-922400D02*
D03*
X-947800D02*
D03*
X-973200D02*
D03*
Y240000D02*
D03*
X-947800D02*
D03*
X-922400D02*
D03*
X-897000D02*
D03*
X-871600D02*
D03*
X-846200D02*
D03*
X-820800D02*
D03*
X-795400D02*
D03*
X-770000D02*
D03*
X-744600D02*
D03*
X-719200D02*
D03*
X-693800D02*
D03*
X-668400D02*
D03*
X-643000D02*
D03*
X-617600D02*
D03*
X-592200D02*
D03*
X-566800D02*
D03*
X-541400D02*
D03*
X-516000D02*
D03*
D50*
X-490600D02*
D03*
D53*
X-1052216Y153376D02*
D03*
D54*
X-987350Y730000D02*
D03*
X-1006850D02*
D03*
X-959500D02*
D03*
X-940000D02*
D03*
X-1006850Y620000D02*
D03*
X-987350D02*
D03*
X-1006850Y670000D02*
D03*
X-987350D02*
D03*
X-1100250Y340000D02*
D03*
X-1119750D02*
D03*
Y390000D02*
D03*
X-1100250D02*
D03*
X-1069750D02*
D03*
X-1050250D02*
D03*
X-1019750D02*
D03*
X-1000250D02*
D03*
X-969750D02*
D03*
X-950250D02*
D03*
X-1000250Y340000D02*
D03*
X-1019750D02*
D03*
X-1050250D02*
D03*
X-1069750D02*
D03*
X-1100250Y290000D02*
D03*
X-1119750D02*
D03*
X-950250Y340000D02*
D03*
X-969750D02*
D03*
D55*
X-930000Y680000D02*
D03*
X-949000D02*
D03*
X-930000Y610000D02*
D03*
X-949000D02*
D03*
X-930000Y630000D02*
D03*
X-949000D02*
D03*
X-240500Y340000D02*
D03*
X-259500D02*
D03*
X-241000Y300000D02*
D03*
X-260000D02*
D03*
X-190500Y380000D02*
D03*
X-209500D02*
D03*
X-859000Y340000D02*
D03*
X-840000D02*
D03*
X-849500Y380000D02*
D03*
X-830500D02*
D03*
X-899500D02*
D03*
X-880500D02*
D03*
X-209500Y340000D02*
D03*
X-190500D02*
D03*
X-209500Y300000D02*
D03*
X-190500D02*
D03*
X-439500Y310000D02*
D03*
X-420500D02*
D03*
X-759500Y330000D02*
D03*
X-740500D02*
D03*
X-439500Y260000D02*
D03*
X-420500D02*
D03*
X-799500Y370000D02*
D03*
X-780500D02*
D03*
X-689500Y460000D02*
D03*
X-670500D02*
D03*
X-439500Y210000D02*
D03*
X-420500D02*
D03*
X-749500Y370000D02*
D03*
X-730500D02*
D03*
X-599500Y350000D02*
D03*
X-580500D02*
D03*
X-649500D02*
D03*
X-630500D02*
D03*
X-709000Y340000D02*
D03*
X-690000D02*
D03*
X-699500Y390000D02*
D03*
X-680500D02*
D03*
X-530500Y350000D02*
D03*
X-549500D02*
D03*
X-490500D02*
D03*
X-509500D02*
D03*
X-450500D02*
D03*
X-469500D02*
D03*
D56*
X-1192700Y236950D02*
D03*
X-1167300D02*
D03*
Y343050D02*
D03*
X-1192700D02*
D03*
D57*
X-40000Y239500D02*
D03*
Y220500D02*
D03*
D58*
X-430000Y140000D02*
D03*
Y121000D02*
D03*
X-410000Y130500D02*
D03*
D59*
X-835700Y640000D02*
D03*
X-477100Y560000D02*
D03*
X-360000Y580000D02*
D03*
X-627500Y440000D02*
D03*
D60*
X-810300Y640000D02*
D03*
X-784900D02*
D03*
X-759500D02*
D03*
X-734100D02*
D03*
X-708700D02*
D03*
X-683300D02*
D03*
X-657900D02*
D03*
X-632500D02*
D03*
X-607100D02*
D03*
X-581700D02*
D03*
X-556300D02*
D03*
X-530900D02*
D03*
X-442100Y560000D02*
D03*
X-325000Y580000D02*
D03*
X-592500Y440000D02*
D03*
D61*
X-1195000Y70000D02*
D03*
X-1145000D02*
D03*
X-170000Y700000D02*
D03*
X-220000D02*
D03*
X-60000Y165000D02*
D03*
Y115000D02*
D03*
Y425000D02*
D03*
Y475000D02*
D03*
X-1190000Y625000D02*
D03*
Y575000D02*
D03*
Y475000D02*
D03*
Y425000D02*
D03*
X-60000Y615000D02*
D03*
Y565000D02*
D03*
X-325000Y700000D02*
D03*
X-375000D02*
D03*
D62*
X-769500Y530000D02*
D03*
D63*
X-744100D02*
D03*
X-718700D02*
D03*
X-693300D02*
D03*
X-667900D02*
D03*
X-642500D02*
D03*
X-617100D02*
D03*
X-591700D02*
D03*
X-566300D02*
D03*
X-540900D02*
D03*
Y607800D02*
D03*
X-566300D02*
D03*
X-591700D02*
D03*
X-617100D02*
D03*
X-642500D02*
D03*
X-667900D02*
D03*
X-693300D02*
D03*
X-718700D02*
D03*
X-744100D02*
D03*
X-769500D02*
D03*
D64*
X-1107100Y670000D02*
D03*
Y644600D02*
D03*
Y695400D02*
D03*
Y720800D02*
D03*
X-1047100Y670000D02*
D03*
Y644600D02*
D03*
Y695400D02*
D03*
Y720800D02*
D03*
X-130000Y20000D02*
D03*
X-104600D02*
D03*
X-40000Y330000D02*
D03*
Y304600D02*
D03*
X-370000Y20000D02*
D03*
X-395400D02*
D03*
X-344600D02*
D03*
X-319200D02*
D03*
X-550000D02*
D03*
X-524600D02*
D03*
X-575400D02*
D03*
X-600800D02*
D03*
X-645400Y290000D02*
D03*
X-620000D02*
D03*
X-915400D02*
D03*
X-890000D02*
D03*
X-664600Y10000D02*
D03*
X-690000D02*
D03*
X-754600Y290000D02*
D03*
X-780000D02*
D03*
X-729200D02*
D03*
X-703800D02*
D03*
X-784600Y20000D02*
D03*
X-810000D02*
D03*
X-535400Y290000D02*
D03*
X-510000D02*
D03*
X-901900Y20000D02*
D03*
X-927300D02*
D03*
X-952700D02*
D03*
D65*
X-1107100Y619200D02*
D03*
X-1047100D02*
D03*
X-40000Y279200D02*
D03*
D66*
X-315000Y340000D02*
D03*
X-715000Y440000D02*
D03*
D67*
X-365000Y340000D02*
D03*
X-765000Y440000D02*
D03*
D68*
X-311900Y498100D02*
D03*
X-337300D02*
D03*
X-362700D02*
D03*
X-388100D02*
D03*
X-311900Y421900D02*
D03*
X-337300D02*
D03*
X-362700D02*
D03*
X-301900Y258100D02*
D03*
X-327300D02*
D03*
X-352700D02*
D03*
X-378100D02*
D03*
X-301900Y181900D02*
D03*
X-327300D02*
D03*
X-352700D02*
D03*
D69*
X-388100Y421900D02*
D03*
X-378100Y181900D02*
D03*
D70*
X-214600Y230000D02*
D03*
X-227300D02*
D03*
X-97300Y350000D02*
D03*
X-110000D02*
D03*
X-324600Y110000D02*
D03*
X-337300D02*
D03*
D71*
X-240000Y230000D02*
D03*
X-122700Y350000D02*
D03*
X-350000Y110000D02*
D03*
D72*
X-1040000Y159200D02*
D03*
Y184600D02*
D03*
D73*
Y210000D02*
D03*
D74*
X-79200Y20000D02*
D03*
X-420800D02*
D03*
X-499200D02*
D03*
X-594600Y290000D02*
D03*
X-864600D02*
D03*
X-715400Y10000D02*
D03*
X-805400Y290000D02*
D03*
X-835400Y20000D02*
D03*
X-484600Y290000D02*
D03*
X-978100Y20000D02*
D03*
D75*
X-505400Y447000D02*
D03*
X-480000D02*
D03*
D76*
X-454600D02*
D03*
D77*
X-1200000Y10000D02*
D03*
X-30000Y30000D02*
D03*
X-40000Y710000D02*
D03*
X-1190000Y730000D02*
D03*
D78*
X-1209840Y261637D02*
D03*
X-890352Y579622D02*
D03*
X-1119750Y368802D02*
D03*
X-134194Y96260D02*
D03*
X-425024Y83052D02*
D03*
X-728046Y667760D02*
D03*
X-948772Y182620D02*
D03*
X-239096Y413760D02*
D03*
X-790276Y460750D02*
D03*
X-585298Y157220D02*
D03*
X-1068914Y313684D02*
D03*
X-784688Y433064D02*
D03*
X-999318Y599688D02*
D03*
X-860126Y101848D02*
D03*
X-119716Y683000D02*
D03*
X-423754Y197860D02*
D03*
X-215474Y205734D02*
D03*
X-215982Y446272D02*
D03*
X-821010Y399790D02*
D03*
X-851380Y317494D02*
D03*
X-462870Y267202D02*
D03*
X-902798Y306826D02*
D03*
X-262718Y193288D02*
D03*
X-561676Y272028D02*
D03*
X-643464D02*
D03*
X-1016430Y284380D02*
D03*
X-679532Y269996D02*
D03*
X-633380Y416554D02*
D03*
X-723288Y218688D02*
D03*
X-402418D02*
D03*
X-285070Y347720D02*
D03*
X-657210Y314954D02*
D03*
X-586568D02*
D03*
X-509098Y386328D02*
D03*
X-1167212Y295396D02*
D03*
X-397680Y287180D02*
D03*
X-957408Y284220D02*
D03*
X-218776Y420618D02*
D03*
X-927944Y503930D02*
D03*
X-50130Y247260D02*
D03*
X-1085678Y234944D02*
D03*
X-1019750Y317050D02*
D03*
M02*
