G04*
G04 #@! TF.GenerationSoftware,Altium Limited,Altium Designer,24.2.2 (26)*
G04*
G04 Layer_Color=65535*
%FSLAX44Y44*%
%MOMM*%
G71*
G04*
G04 #@! TF.SameCoordinates,10A94CF6-3787-4B2F-9572-986175F5FC9A*
G04*
G04*
G04 #@! TF.FilePolarity,Positive*
G04*
G01*
G75*
%ADD10C,0.4000*%
%ADD11C,0.2000*%
%ADD12C,0.1270*%
%ADD13C,0.6000*%
%ADD14C,0.2500*%
%ADD15C,0.1524*%
%ADD16C,0.2540*%
D10*
X-1135000Y56000D02*
G03*
X-1135000Y56000I-1000J0D01*
G01*
X-228000Y714000D02*
G03*
X-228000Y714000I-1000J0D01*
G01*
X-73000Y106000D02*
G03*
X-73000Y106000I-1000J0D01*
G01*
X-45000Y484000D02*
G03*
X-45000Y484000I-1000J0D01*
G01*
X-1203000Y566000D02*
G03*
X-1203000Y566000I-1000J0D01*
G01*
Y416000D02*
G03*
X-1203000Y416000I-1000J0D01*
G01*
X-73000Y556000D02*
G03*
X-73000Y556000I-1000J0D01*
G01*
X-383000Y714000D02*
G03*
X-383000Y714000I-1000J0D01*
G01*
D11*
X-506100Y560000D02*
G03*
X-506100Y560000I-1000J0D01*
G01*
X-768500Y514050D02*
G03*
X-768500Y514050I-1000J0D01*
G01*
X-378630Y340000D02*
G03*
X-378630Y340000I-1000J0D01*
G01*
X-399000Y453650D02*
G03*
X-399000Y466350I0J6350D01*
G01*
X-389000Y580000D02*
G03*
X-389000Y580000I-1000J0D01*
G01*
X-389000Y213650D02*
G03*
X-389000Y226350I0J6350D01*
G01*
X-207961Y216649D02*
G03*
X-246637Y216645I-19339J13352D01*
G01*
X-90661Y336648D02*
G03*
X-129337Y336645I-19339J13352D01*
G01*
X-414000Y447000D02*
G03*
X-414000Y447000I-1000J0D01*
G01*
X-656500Y440000D02*
G03*
X-656500Y440000I-1000J0D01*
G01*
X-317961Y96649D02*
G03*
X-356637Y96645I-19339J13352D01*
G01*
X-126000Y110000D02*
G03*
X-126000Y110000I-44000J0D01*
G01*
X-778630Y440000D02*
G03*
X-778630Y440000I-1000J0D01*
G01*
X-1119000Y34000D02*
Y111000D01*
X-1221000D02*
X-1119000D01*
X-1221000Y34000D02*
Y111000D01*
Y34000D02*
X-1119000D01*
X-999600Y727750D02*
X-994600D01*
X-999600Y732250D02*
X-994600D01*
X-952250D02*
X-947250D01*
X-952250Y727750D02*
X-947250D01*
X-999600Y622250D02*
X-994600D01*
X-999600Y617750D02*
X-994600D01*
X-999600Y672250D02*
X-994600D01*
X-999600Y667750D02*
X-994600D01*
X-1120550Y735000D02*
X-1093650D01*
X-1120550Y605000D02*
Y735000D01*
Y605000D02*
X-1093650D01*
Y735000D01*
X-1060550D02*
X-1033650D01*
X-1060550Y605000D02*
Y735000D01*
Y605000D02*
X-1033650D01*
Y735000D01*
X-942000Y678000D02*
X-937000D01*
X-942000Y682000D02*
X-937000D01*
X-942000Y608000D02*
X-937000D01*
X-942000Y612000D02*
X-937000D01*
X-942000Y628000D02*
X-937000D01*
X-942000Y632000D02*
X-937000D01*
X-301000Y433500D02*
Y486500D01*
X-399000Y466350D02*
Y486500D01*
Y433500D02*
Y453650D01*
Y486500D02*
X-301000D01*
X-399000Y433500D02*
X-301000D01*
X-1112500Y337750D02*
X-1107500D01*
X-1112500Y342250D02*
X-1107500D01*
X-252500Y338000D02*
X-247500D01*
X-252500Y342000D02*
X-247500D01*
X-253000Y298000D02*
X-248000D01*
X-253000Y302000D02*
X-248000D01*
X-202500Y378000D02*
X-197500D01*
X-202500Y382000D02*
X-197500D01*
X-246000Y659000D02*
Y736000D01*
Y659000D02*
X-144000D01*
Y736000D01*
X-246000D02*
X-144000D01*
X-1112500Y392250D02*
X-1107500D01*
X-1112500Y387750D02*
X-1107500D01*
X-852000Y342000D02*
X-847000D01*
X-852000Y338000D02*
X-847000D01*
X-1062500Y392250D02*
X-1057500D01*
X-1062500Y387750D02*
X-1057500D01*
X-842500Y382000D02*
X-837500D01*
X-842500Y378000D02*
X-837500D01*
X-892500Y382000D02*
X-887500D01*
X-892500Y378000D02*
X-887500D01*
X-202500Y342000D02*
X-197500D01*
X-202500Y338000D02*
X-197500D01*
X-202500Y302000D02*
X-197500D01*
X-202500Y298000D02*
X-197500D01*
X-432500Y312000D02*
X-427500D01*
X-432500Y308000D02*
X-427500D01*
X-1012500Y392250D02*
X-1007500D01*
X-1012500Y387750D02*
X-1007500D01*
X-752500Y332000D02*
X-747500D01*
X-752500Y328000D02*
X-747500D01*
X-291000Y193500D02*
Y246500D01*
X-389000Y226350D02*
Y246500D01*
Y193500D02*
Y213650D01*
Y246500D02*
X-291000D01*
X-389000Y193500D02*
X-291000D01*
X-432500Y262000D02*
X-427500D01*
X-432500Y258000D02*
X-427500D01*
X-962500Y392250D02*
X-957500D01*
X-962500Y387750D02*
X-957500D01*
X-246637Y216650D02*
X-207963D01*
X-792500Y372000D02*
X-787500D01*
X-792500Y368000D02*
X-787500D01*
X-682500Y462000D02*
X-677500D01*
X-682500Y458000D02*
X-677500D01*
X-1040000Y237300D02*
X-1008050D01*
Y131900D02*
Y237300D01*
X-1054950Y131900D02*
X-1008050D01*
X-432500Y212000D02*
X-427500D01*
X-432500Y208000D02*
X-427500D01*
X-129337Y336650D02*
X-90663D01*
X-1211500Y233100D02*
Y346900D01*
Y233100D02*
X-1205600D01*
X-1211500Y346900D02*
X-1205600D01*
X-1154400Y233100D02*
X-1148500D01*
X-1154400Y346900D02*
X-1148500D01*
Y233100D02*
Y346900D01*
X-107898Y706440D02*
Y712560D01*
X-100129Y695000D02*
X-94898D01*
Y715940D02*
Y724000D01*
Y695000D02*
Y703060D01*
X-100129Y724000D02*
X-94898D01*
X-742500Y372000D02*
X-737500D01*
X-742500Y368000D02*
X-737500D01*
X-96000Y89000D02*
X-19000D01*
Y191000D01*
X-96000D02*
X-19000D01*
X-96000Y89000D02*
Y191000D01*
X-101000Y501000D02*
X-24000D01*
X-101000Y399000D02*
Y501000D01*
Y399000D02*
X-24000D01*
Y501000D01*
X-144200Y33450D02*
X-65000D01*
Y6550D02*
Y33450D01*
X-144200Y6550D02*
X-65000D01*
X-144200D02*
Y33450D01*
X-26550Y265000D02*
Y344200D01*
X-53450Y265000D02*
X-26550D01*
X-53450D02*
Y344200D01*
X-26550D01*
X-1226000Y549000D02*
X-1149000D01*
Y651000D01*
X-1226000D02*
X-1149000D01*
X-1226000Y549000D02*
Y651000D01*
Y399000D02*
X-1149000D01*
Y501000D01*
X-1226000D02*
X-1149000D01*
X-1226000Y399000D02*
Y501000D01*
X-38000Y227500D02*
Y232500D01*
X-42000Y227500D02*
Y232500D01*
X-592500Y352000D02*
X-587500D01*
X-592500Y348000D02*
X-587500D01*
X-642500Y352000D02*
X-637500D01*
X-642500Y348000D02*
X-637500D01*
X-356637Y96650D02*
X-317964D01*
X-159000Y215765D02*
Y216750D01*
Y203250D02*
Y204235D01*
Y203250D02*
X-141000D01*
Y215765D02*
Y216750D01*
Y203250D02*
Y204235D01*
X-159000Y216750D02*
X-141000D01*
X-702000Y342000D02*
X-697000D01*
X-702000Y338000D02*
X-697000D01*
X-692500Y392000D02*
X-687500D01*
X-692500Y388000D02*
X-687500D01*
X-421650Y145100D02*
X-413500D01*
Y138500D02*
Y145100D01*
X-421650Y115900D02*
X-413500D01*
Y122500D01*
X-1105000Y436500D02*
X-815000D01*
X-1105000Y551250D02*
Y563500D01*
Y476250D02*
Y523750D01*
Y436500D02*
Y448750D01*
Y563500D02*
X-815000D01*
Y436500D02*
Y563500D01*
X-96000Y539000D02*
X-19000D01*
Y641000D01*
X-96000D02*
X-19000D01*
X-96000Y539000D02*
Y641000D01*
X-305000Y6550D02*
Y33450D01*
X-435000D02*
X-305000D01*
X-435000Y6550D02*
Y33450D01*
Y6550D02*
X-305000D01*
X-615000D02*
Y33450D01*
Y6550D02*
X-485000D01*
Y33450D01*
X-615000D02*
X-485000D01*
X-259000Y395765D02*
Y396750D01*
Y383250D02*
Y384235D01*
Y383250D02*
X-241000D01*
Y395765D02*
Y396750D01*
Y383250D02*
Y384235D01*
X-259000Y396750D02*
X-241000D01*
X-1012500Y337750D02*
X-1007500D01*
X-1012500Y342250D02*
X-1007500D01*
X-659600Y303450D02*
X-580400D01*
Y276550D02*
Y303450D01*
X-659600Y276550D02*
X-580400D01*
X-659600D02*
Y303450D01*
X-929600D02*
X-850400D01*
Y276550D02*
Y303450D01*
X-929600Y276550D02*
X-850400D01*
X-929600D02*
Y303450D01*
X-1062500Y337750D02*
X-1057500D01*
X-1062500Y342250D02*
X-1057500D01*
X-1112500Y287750D02*
X-1107500D01*
X-1112500Y292250D02*
X-1107500D01*
X-473138Y179312D02*
Y220475D01*
X-478137Y179312D02*
X-473138D01*
X-478137Y146382D02*
Y179312D01*
Y146382D02*
X-473138D01*
Y105220D02*
Y146382D01*
X-990663Y105220D02*
X-473138D01*
X-990663D02*
Y220475D01*
X-473138D01*
X-542500Y348000D02*
X-537500D01*
X-542500Y352000D02*
X-537500D01*
X-502500Y348000D02*
X-497500D01*
X-502500Y352000D02*
X-497500D01*
X-729600Y-3450D02*
X-650400D01*
X-729600D02*
Y23450D01*
X-650400D01*
Y-3450D02*
Y23450D01*
X-689600Y276550D02*
Y303450D01*
X-819600D02*
X-689600D01*
X-819600Y276550D02*
Y303450D01*
Y276550D02*
X-689600D01*
X-849600Y6550D02*
X-770400D01*
X-849600D02*
Y33450D01*
X-770400D01*
Y6550D02*
Y33450D01*
X-401000Y659000D02*
Y736000D01*
Y659000D02*
X-299000D01*
Y736000D01*
X-401000D02*
X-299000D01*
X-962500Y337750D02*
X-957500D01*
X-962500Y342250D02*
X-957500D01*
X-462500Y348000D02*
X-457500D01*
X-462500Y352000D02*
X-457500D01*
X-549600Y303450D02*
X-470400D01*
Y276550D02*
Y303450D01*
X-549600Y276550D02*
X-470400D01*
X-549600D02*
Y303450D01*
X-887700Y6550D02*
Y33450D01*
X-992300D02*
X-887700D01*
X-992300Y6550D02*
Y33450D01*
Y6550D02*
X-887700D01*
D12*
X-419600Y560000D02*
G03*
X-419600Y560000I-40000J0D01*
G01*
X-363180Y330635D02*
G03*
X-316820Y330635I23180J9365D01*
G01*
Y349365D02*
G03*
X-363180Y349365I-23180J-9365D01*
G01*
X-302500Y580000D02*
G03*
X-302500Y580000I-40000J0D01*
G01*
X-570000Y440000D02*
G03*
X-570000Y440000I-40000J0D01*
G01*
X-763180Y430635D02*
G03*
X-716820Y430635I23180J9365D01*
G01*
Y449365D02*
G03*
X-763180Y449365I-23180J-9365D01*
G01*
X-785200Y600900D02*
X-778950D01*
X-531450D02*
X-525200D01*
X-785200Y536900D02*
X-778950D01*
X-531450D02*
X-525200D01*
X-785200D02*
Y600900D01*
X-525200Y536900D02*
Y600900D01*
X-422000Y392500D02*
Y467500D01*
X-538000Y392500D02*
Y467500D01*
Y392500D02*
X-422000D01*
X-538000Y467500D02*
X-422000D01*
D13*
X-386000Y443500D02*
G03*
X-386000Y443500I-3000J0D01*
G01*
X-376000Y203500D02*
G03*
X-376000Y203500I-3000J0D01*
G01*
D14*
X-399850Y421900D02*
G03*
X-399850Y421900I-1250J0D01*
G01*
X-389850Y181900D02*
G03*
X-389850Y181900I-1250J0D01*
G01*
X-255550Y230000D02*
G03*
X-255550Y230000I-1250J0D01*
G01*
X-138250Y350000D02*
G03*
X-138250Y350000I-1250J0D01*
G01*
X-1191450Y210100D02*
G03*
X-1191450Y210100I-1250J0D01*
G01*
X-365550Y110000D02*
G03*
X-365550Y110000I-1250J0D01*
G01*
X-168000Y210000D02*
G03*
X-168000Y210000I-1250J0D01*
G01*
X-428750Y149500D02*
G03*
X-428750Y149500I-1250J0D01*
G01*
X-809000Y538750D02*
G03*
X-809000Y538750I-1250J0D01*
G01*
X-268000Y390000D02*
G03*
X-268000Y390000I-1250J0D01*
G01*
X-489350Y252250D02*
G03*
X-489350Y252250I-1250J0D01*
G01*
D15*
X-1134257Y723771D02*
Y717000D01*
X-1129178D01*
X-1130871Y720386D01*
Y722078D01*
X-1129178Y723771D01*
X-1125793D01*
X-1124100Y722078D01*
Y718693D01*
X-1125793Y717000D01*
X-1124100Y618000D02*
Y621385D01*
Y619693D01*
X-1134257D01*
X-1132564Y618000D01*
X-1074257Y723771D02*
Y717000D01*
X-1069178D01*
X-1070871Y720386D01*
Y722078D01*
X-1069178Y723771D01*
X-1065793D01*
X-1064100Y722078D01*
Y718693D01*
X-1065793Y717000D01*
X-1064100Y618000D02*
Y621385D01*
Y619693D01*
X-1074257D01*
X-1072564Y618000D01*
X-316229Y47157D02*
X-323000D01*
Y42078D01*
X-319614Y43771D01*
X-317922D01*
X-316229Y42078D01*
Y38693D01*
X-317922Y37000D01*
X-321307D01*
X-323000Y38693D01*
X-422000Y37000D02*
X-418615D01*
X-420307D01*
Y47157D01*
X-422000Y45464D01*
X-603771Y-7157D02*
X-597000D01*
Y-2078D01*
X-600386Y-3771D01*
X-602078D01*
X-603771Y-2078D01*
Y1307D01*
X-602078Y3000D01*
X-598693D01*
X-597000Y1307D01*
X-498000Y3000D02*
X-501386D01*
X-499693D01*
Y-7157D01*
X-498000Y-5464D01*
X-700829Y317157D02*
X-707600D01*
Y312078D01*
X-704214Y313771D01*
X-702522D01*
X-700829Y312078D01*
Y308693D01*
X-702522Y307000D01*
X-705907D01*
X-707600Y308693D01*
X-806600Y307000D02*
X-803214D01*
X-804907D01*
Y317157D01*
X-806600Y315464D01*
D16*
X-433152Y174741D02*
X-422995D01*
Y172202D01*
X-433152Y162045D01*
Y159506D01*
X-422995D01*
X-417917Y174741D02*
Y159506D01*
X-410299D01*
X-407760Y162045D01*
Y172202D01*
X-410299Y174741D01*
X-417917D01*
X-402682Y159506D02*
X-397603D01*
X-400143D01*
Y174741D01*
X-402682Y172202D01*
X-366858Y157723D02*
X-356701D01*
X-361780D01*
Y142488D01*
X-341466Y157723D02*
X-351623D01*
Y150105D01*
X-346545Y152645D01*
X-344005D01*
X-341466Y150105D01*
Y145027D01*
X-344005Y142488D01*
X-349084D01*
X-351623Y145027D01*
X-1071200Y332729D02*
X-1061043D01*
X-1066122D01*
Y317494D01*
X-1048347D02*
Y332729D01*
X-1055965Y325112D01*
X-1045808D01*
X-256876Y277611D02*
X-246719D01*
X-251798D01*
Y262376D01*
X-241641Y275072D02*
X-239102Y277611D01*
X-234023D01*
X-231484Y275072D01*
Y272533D01*
X-234023Y269993D01*
X-236563D01*
X-234023D01*
X-231484Y267454D01*
Y264915D01*
X-234023Y262376D01*
X-239102D01*
X-241641Y264915D01*
X-115652Y748781D02*
X-105495D01*
X-110574D01*
Y733546D01*
X-90260D02*
X-100417D01*
X-90260Y743703D01*
Y746242D01*
X-92799Y748781D01*
X-97878D01*
X-100417Y746242D01*
X-139528Y397499D02*
X-129371D01*
X-134450D01*
Y382264D01*
X-124293D02*
X-119215D01*
X-121754D01*
Y397499D01*
X-124293Y394960D01*
X-1104474Y573018D02*
Y588253D01*
X-1096857D01*
X-1094317Y585714D01*
Y580635D01*
X-1096857Y578096D01*
X-1104474D01*
X-1099396D02*
X-1094317Y573018D01*
X-1079082Y588253D02*
X-1089239D01*
Y573018D01*
X-1079082D01*
X-1089239Y580635D02*
X-1084161D01*
X-1074004Y573018D02*
X-1068925D01*
X-1071465D01*
Y588253D01*
X-1074004Y585714D01*
X-712298Y353308D02*
Y368543D01*
X-704680D01*
X-702141Y366004D01*
Y360925D01*
X-704680Y358386D01*
X-712298D01*
X-707220D02*
X-702141Y353308D01*
X-686906D02*
X-697063D01*
X-686906Y363465D01*
Y366004D01*
X-689445Y368543D01*
X-694524D01*
X-697063Y366004D01*
X-671671Y368543D02*
X-681828D01*
Y360925D01*
X-676749Y363465D01*
X-674210D01*
X-671671Y360925D01*
Y355847D01*
X-674210Y353308D01*
X-679289D01*
X-681828Y355847D01*
X-702646Y403346D02*
Y418581D01*
X-695029D01*
X-692489Y416042D01*
Y410964D01*
X-695029Y408424D01*
X-702646D01*
X-697568D02*
X-692489Y403346D01*
X-677254D02*
X-687411D01*
X-677254Y413503D01*
Y416042D01*
X-679793Y418581D01*
X-684872D01*
X-687411Y416042D01*
X-664558Y403346D02*
Y418581D01*
X-672176Y410964D01*
X-662019D01*
X-602824Y363468D02*
Y378703D01*
X-595206D01*
X-592667Y376164D01*
Y371086D01*
X-595206Y368546D01*
X-602824D01*
X-597746D02*
X-592667Y363468D01*
X-577432D02*
X-587589D01*
X-577432Y373625D01*
Y376164D01*
X-579971Y378703D01*
X-585050D01*
X-587589Y376164D01*
X-572354D02*
X-569815Y378703D01*
X-564736D01*
X-562197Y376164D01*
Y373625D01*
X-564736Y371086D01*
X-567276D01*
X-564736D01*
X-562197Y368546D01*
Y366007D01*
X-564736Y363468D01*
X-569815D01*
X-572354Y366007D01*
X-652608Y363468D02*
Y378703D01*
X-644990D01*
X-642451Y376164D01*
Y371086D01*
X-644990Y368546D01*
X-652608D01*
X-647530D02*
X-642451Y363468D01*
X-627216D02*
X-637373D01*
X-627216Y373625D01*
Y376164D01*
X-629755Y378703D01*
X-634834D01*
X-637373Y376164D01*
X-611981Y363468D02*
X-622138D01*
X-611981Y373625D01*
Y376164D01*
X-614520Y378703D01*
X-619599D01*
X-622138Y376164D01*
X-692740Y473450D02*
Y488685D01*
X-685123D01*
X-682583Y486146D01*
Y481068D01*
X-685123Y478528D01*
X-692740D01*
X-687662D02*
X-682583Y473450D01*
X-667348D02*
X-677505D01*
X-667348Y483607D01*
Y486146D01*
X-669887Y488685D01*
X-674966D01*
X-677505Y486146D01*
X-662270Y473450D02*
X-657191D01*
X-659731D01*
Y488685D01*
X-662270Y486146D01*
X-802722Y383280D02*
Y398515D01*
X-795105D01*
X-792565Y395976D01*
Y390897D01*
X-795105Y388358D01*
X-802722D01*
X-797644D02*
X-792565Y383280D01*
X-777330D02*
X-787487D01*
X-777330Y393437D01*
Y395976D01*
X-779869Y398515D01*
X-784948D01*
X-787487Y395976D01*
X-772252D02*
X-769713Y398515D01*
X-764634D01*
X-762095Y395976D01*
Y385819D01*
X-764634Y383280D01*
X-769713D01*
X-772252Y385819D01*
Y395976D01*
X-752684Y383280D02*
Y398515D01*
X-745067D01*
X-742527Y395976D01*
Y390897D01*
X-745067Y388358D01*
X-752684D01*
X-747606D02*
X-742527Y383280D01*
X-737449D02*
X-732371D01*
X-734910D01*
Y398515D01*
X-737449Y395976D01*
X-724753Y385819D02*
X-722214Y383280D01*
X-717135D01*
X-714596Y385819D01*
Y395976D01*
X-717135Y398515D01*
X-722214D01*
X-724753Y395976D01*
Y393437D01*
X-722214Y390897D01*
X-714596D01*
X-442804Y223260D02*
Y238495D01*
X-435187D01*
X-432647Y235956D01*
Y230877D01*
X-435187Y228338D01*
X-442804D01*
X-437726D02*
X-432647Y223260D01*
X-427569D02*
X-422491D01*
X-425030D01*
Y238495D01*
X-427569Y235956D01*
X-414873D02*
X-412334Y238495D01*
X-407256D01*
X-404716Y235956D01*
Y233417D01*
X-407256Y230877D01*
X-404716Y228338D01*
Y225799D01*
X-407256Y223260D01*
X-412334D01*
X-414873Y225799D01*
Y228338D01*
X-412334Y230877D01*
X-414873Y233417D01*
Y235956D01*
X-412334Y230877D02*
X-407256D01*
X-442804Y273298D02*
Y288533D01*
X-435187D01*
X-432647Y285994D01*
Y280916D01*
X-435187Y278376D01*
X-442804D01*
X-437726D02*
X-432647Y273298D01*
X-427569D02*
X-422491D01*
X-425030D01*
Y288533D01*
X-427569Y285994D01*
X-414873Y288533D02*
X-404716D01*
Y285994D01*
X-414873Y275837D01*
Y273298D01*
X-762590Y343402D02*
Y358637D01*
X-754973D01*
X-752433Y356098D01*
Y351020D01*
X-754973Y348480D01*
X-762590D01*
X-757512D02*
X-752433Y343402D01*
X-747355D02*
X-742277D01*
X-744816D01*
Y358637D01*
X-747355Y356098D01*
X-724502Y358637D02*
X-729581Y356098D01*
X-734659Y351020D01*
Y345941D01*
X-732120Y343402D01*
X-727041D01*
X-724502Y345941D01*
Y348480D01*
X-727041Y351020D01*
X-734659D01*
X-442804Y323336D02*
Y338571D01*
X-435187D01*
X-432647Y336032D01*
Y330953D01*
X-435187Y328414D01*
X-442804D01*
X-437726D02*
X-432647Y323336D01*
X-427569D02*
X-422491D01*
X-425030D01*
Y338571D01*
X-427569Y336032D01*
X-404716Y338571D02*
X-414873D01*
Y330953D01*
X-409795Y333493D01*
X-407256D01*
X-404716Y330953D01*
Y325875D01*
X-407256Y323336D01*
X-412334D01*
X-414873Y325875D01*
X-212680Y313430D02*
Y328665D01*
X-205063D01*
X-202523Y326126D01*
Y321048D01*
X-205063Y318508D01*
X-212680D01*
X-207602D02*
X-202523Y313430D01*
X-197445D02*
X-192367D01*
X-194906D01*
Y328665D01*
X-197445Y326126D01*
X-177132Y313430D02*
Y328665D01*
X-184749Y321048D01*
X-174592D01*
X-902798Y393440D02*
Y408675D01*
X-895181D01*
X-892641Y406136D01*
Y401058D01*
X-895181Y398518D01*
X-902798D01*
X-897720D02*
X-892641Y393440D01*
X-887563D02*
X-882485D01*
X-885024D01*
Y408675D01*
X-887563Y406136D01*
X-874867D02*
X-872328Y408675D01*
X-867250D01*
X-864710Y406136D01*
Y403597D01*
X-867250Y401058D01*
X-869789D01*
X-867250D01*
X-864710Y398518D01*
Y395979D01*
X-867250Y393440D01*
X-872328D01*
X-874867Y395979D01*
X-212680Y353308D02*
Y368543D01*
X-205063D01*
X-202523Y366004D01*
Y360925D01*
X-205063Y358386D01*
X-212680D01*
X-207602D02*
X-202523Y353308D01*
X-197445D02*
X-192367D01*
X-194906D01*
Y368543D01*
X-197445Y366004D01*
X-174592Y353308D02*
X-184749D01*
X-174592Y363465D01*
Y366004D01*
X-177132Y368543D01*
X-182210D01*
X-184749Y366004D01*
X-852760Y393440D02*
Y408675D01*
X-845143D01*
X-842603Y406136D01*
Y401058D01*
X-845143Y398518D01*
X-852760D01*
X-847682D02*
X-842603Y393440D01*
X-837525D02*
X-832447D01*
X-834986D01*
Y408675D01*
X-837525Y406136D01*
X-824829Y393440D02*
X-819751D01*
X-822290D01*
Y408675D01*
X-824829Y406136D01*
X-862158Y353308D02*
Y368543D01*
X-854540D01*
X-852001Y366004D01*
Y360925D01*
X-854540Y358386D01*
X-862158D01*
X-857080D02*
X-852001Y353308D01*
X-846923D02*
X-841845D01*
X-844384D01*
Y368543D01*
X-846923Y366004D01*
X-834227D02*
X-831688Y368543D01*
X-826609D01*
X-824070Y366004D01*
Y355847D01*
X-826609Y353308D01*
X-831688D01*
X-834227Y355847D01*
Y366004D01*
X-212680Y393440D02*
Y408675D01*
X-205063D01*
X-202523Y406136D01*
Y401058D01*
X-205063Y398518D01*
X-212680D01*
X-207602D02*
X-202523Y393440D01*
X-197445Y395979D02*
X-194906Y393440D01*
X-189827D01*
X-187288Y395979D01*
Y406136D01*
X-189827Y408675D01*
X-194906D01*
X-197445Y406136D01*
Y403597D01*
X-194906Y401058D01*
X-187288D01*
X-263226Y313430D02*
Y328665D01*
X-255609D01*
X-253069Y326126D01*
Y321048D01*
X-255609Y318508D01*
X-263226D01*
X-258148D02*
X-253069Y313430D01*
X-247991Y326126D02*
X-245452Y328665D01*
X-240373D01*
X-237834Y326126D01*
Y323587D01*
X-240373Y321048D01*
X-237834Y318508D01*
Y315969D01*
X-240373Y313430D01*
X-245452D01*
X-247991Y315969D01*
Y318508D01*
X-245452Y321048D01*
X-247991Y323587D01*
Y326126D01*
X-245452Y321048D02*
X-240373D01*
X-262718Y353308D02*
Y368543D01*
X-255100D01*
X-252561Y366004D01*
Y360925D01*
X-255100Y358386D01*
X-262718D01*
X-257640D02*
X-252561Y353308D01*
X-247483Y368543D02*
X-237326D01*
Y366004D01*
X-247483Y355847D01*
Y353308D01*
X-952328Y643376D02*
Y658611D01*
X-944710D01*
X-942171Y656072D01*
Y650993D01*
X-944710Y648454D01*
X-952328D01*
X-947250D02*
X-942171Y643376D01*
X-926936Y658611D02*
X-932015Y656072D01*
X-937093Y650993D01*
Y645915D01*
X-934554Y643376D01*
X-929475D01*
X-926936Y645915D01*
Y648454D01*
X-929475Y650993D01*
X-937093D01*
X-952328Y623310D02*
Y638545D01*
X-944710D01*
X-942171Y636006D01*
Y630928D01*
X-944710Y628388D01*
X-952328D01*
X-947250D02*
X-942171Y623310D01*
X-926936Y638545D02*
X-937093D01*
Y630928D01*
X-932015Y633467D01*
X-929475D01*
X-926936Y630928D01*
Y625849D01*
X-929475Y623310D01*
X-934554D01*
X-937093Y625849D01*
X-952328Y693414D02*
Y708649D01*
X-944710D01*
X-942171Y706110D01*
Y701031D01*
X-944710Y698492D01*
X-952328D01*
X-947250D02*
X-942171Y693414D01*
X-929475D02*
Y708649D01*
X-937093Y701031D01*
X-926936D01*
X-472776Y363468D02*
Y378703D01*
X-465159D01*
X-462619Y376164D01*
Y371086D01*
X-465159Y368546D01*
X-472776D01*
X-467698D02*
X-462619Y363468D01*
X-457541Y376164D02*
X-455002Y378703D01*
X-449923D01*
X-447384Y376164D01*
Y373625D01*
X-449923Y371086D01*
X-452463D01*
X-449923D01*
X-447384Y368546D01*
Y366007D01*
X-449923Y363468D01*
X-455002D01*
X-457541Y366007D01*
X-552786Y363468D02*
Y378703D01*
X-545168D01*
X-542629Y376164D01*
Y371086D01*
X-545168Y368546D01*
X-552786D01*
X-547708D02*
X-542629Y363468D01*
X-527394D02*
X-537551D01*
X-527394Y373625D01*
Y376164D01*
X-529933Y378703D01*
X-535012D01*
X-537551Y376164D01*
X-512654Y363468D02*
Y378703D01*
X-505037D01*
X-502497Y376164D01*
Y371086D01*
X-505037Y368546D01*
X-512654D01*
X-507576D02*
X-502497Y363468D01*
X-497419D02*
X-492341D01*
X-494880D01*
Y378703D01*
X-497419Y376164D01*
X-1210138Y388609D02*
Y373374D01*
X-1199981D01*
X-1184746D02*
X-1194903D01*
X-1184746Y383531D01*
Y386070D01*
X-1187285Y388609D01*
X-1192364D01*
X-1194903Y386070D01*
X-212680Y178043D02*
Y162808D01*
X-202523D01*
X-197445D02*
X-192367D01*
X-194906D01*
Y178043D01*
X-197445Y175504D01*
X-991952Y58663D02*
Y43428D01*
Y48506D01*
X-981795Y58663D01*
X-989413Y51045D01*
X-981795Y43428D01*
X-976717Y56124D02*
X-974178Y58663D01*
X-969099D01*
X-966560Y56124D01*
Y53585D01*
X-969099Y51045D01*
X-966560Y48506D01*
Y45967D01*
X-969099Y43428D01*
X-974178D01*
X-976717Y45967D01*
Y48506D01*
X-974178Y51045D01*
X-976717Y53585D01*
Y56124D01*
X-974178Y51045D02*
X-969099D01*
X-549230Y328665D02*
Y313430D01*
Y318508D01*
X-539073Y328665D01*
X-546691Y321048D01*
X-539073Y313430D01*
X-533995Y328665D02*
X-523838D01*
Y326126D01*
X-533995Y315969D01*
Y313430D01*
X-399878Y760465D02*
Y745230D01*
Y750308D01*
X-389721Y760465D01*
X-397339Y752848D01*
X-389721Y745230D01*
X-374486Y760465D02*
X-379565Y757926D01*
X-384643Y752848D01*
Y747769D01*
X-382104Y745230D01*
X-377025D01*
X-374486Y747769D01*
Y750308D01*
X-377025Y752848D01*
X-384643D01*
X-849204Y58663D02*
Y43428D01*
Y48506D01*
X-839047Y58663D01*
X-846665Y51045D01*
X-839047Y43428D01*
X-823812Y58663D02*
X-833969D01*
Y51045D01*
X-828891Y53585D01*
X-826351D01*
X-823812Y51045D01*
Y45967D01*
X-826351Y43428D01*
X-831430D01*
X-833969Y45967D01*
X-819232Y341619D02*
Y326384D01*
Y331462D01*
X-809075Y341619D01*
X-816693Y334002D01*
X-809075Y326384D01*
X-796379D02*
Y341619D01*
X-803997Y334002D01*
X-793840D01*
X-729316Y48503D02*
Y33268D01*
Y38346D01*
X-719159Y48503D01*
X-726777Y40886D01*
X-719159Y33268D01*
X-714081Y45964D02*
X-711542Y48503D01*
X-706463D01*
X-703924Y45964D01*
Y43425D01*
X-706463Y40886D01*
X-709003D01*
X-706463D01*
X-703924Y38346D01*
Y35807D01*
X-706463Y33268D01*
X-711542D01*
X-714081Y35807D01*
X-659212Y328665D02*
Y313430D01*
Y318508D01*
X-649055Y328665D01*
X-656673Y321048D01*
X-649055Y313430D01*
X-633820D02*
X-643977D01*
X-633820Y323587D01*
Y326126D01*
X-636359Y328665D01*
X-641438D01*
X-643977Y326126D01*
X-929214Y328665D02*
Y313430D01*
Y318508D01*
X-919057Y328665D01*
X-926675Y321048D01*
X-919057Y313430D01*
X-913979D02*
X-908901D01*
X-911440D01*
Y328665D01*
X-913979Y326126D01*
X-133689Y58663D02*
X-138768D01*
X-136229D01*
Y45967D01*
X-138768Y43428D01*
X-141307D01*
X-143846Y45967D01*
X-128611Y43428D02*
X-123533D01*
X-126072D01*
Y58663D01*
X-128611Y56124D01*
X-115915Y43428D02*
X-110837D01*
X-113376D01*
Y58663D01*
X-115915Y56124D01*
X-43011Y369305D02*
X-48090D01*
X-45550D01*
Y356609D01*
X-48090Y354070D01*
X-50629D01*
X-53168Y356609D01*
X-37933Y354070D02*
X-32855D01*
X-35394D01*
Y369305D01*
X-37933Y366766D01*
X-25237D02*
X-22698Y369305D01*
X-17620D01*
X-15080Y366766D01*
Y356609D01*
X-17620Y354070D01*
X-22698D01*
X-25237Y356609D01*
Y366766D01*
X-1063075Y760211D02*
X-1068154D01*
X-1065614D01*
Y747515D01*
X-1068154Y744976D01*
X-1070693D01*
X-1073232Y747515D01*
X-1057997D02*
X-1055458Y744976D01*
X-1050379D01*
X-1047840Y747515D01*
Y757672D01*
X-1050379Y760211D01*
X-1055458D01*
X-1057997Y757672D01*
Y755133D01*
X-1055458Y752594D01*
X-1047840D01*
X-1042762Y760211D02*
Y744976D01*
X-1035144D01*
X-1032605Y747515D01*
Y750054D01*
X-1035144Y752594D01*
X-1042762D01*
X-1035144D01*
X-1032605Y755133D01*
Y757672D01*
X-1035144Y760211D01*
X-1042762D01*
X-1123019D02*
X-1128098D01*
X-1125558D01*
Y747515D01*
X-1128098Y744976D01*
X-1130637D01*
X-1133176Y747515D01*
X-1117941D02*
X-1115402Y744976D01*
X-1110323D01*
X-1107784Y747515D01*
Y757672D01*
X-1110323Y760211D01*
X-1115402D01*
X-1117941Y757672D01*
Y755133D01*
X-1115402Y752594D01*
X-1107784D01*
X-1102706Y744976D02*
Y755133D01*
X-1097627Y760211D01*
X-1092549Y755133D01*
Y744976D01*
Y752594D01*
X-1102706D01*
X-424519Y71617D02*
X-429598D01*
X-427058D01*
Y58921D01*
X-429598Y56382D01*
X-432137D01*
X-434676Y58921D01*
X-419441Y56382D02*
X-414363D01*
X-416902D01*
Y71617D01*
X-419441Y69078D01*
X-406745Y71617D02*
Y56382D01*
X-399128D01*
X-396588Y58921D01*
Y61460D01*
X-399128Y64000D01*
X-406745D01*
X-399128D01*
X-396588Y66539D01*
Y69078D01*
X-399128Y71617D01*
X-406745D01*
X-604605Y58663D02*
X-609684D01*
X-607145D01*
Y45967D01*
X-609684Y43428D01*
X-612223D01*
X-614762Y45967D01*
X-599527Y43428D02*
X-594449D01*
X-596988D01*
Y58663D01*
X-599527Y56124D01*
X-586831Y43428D02*
Y53585D01*
X-581753Y58663D01*
X-576674Y53585D01*
Y43428D01*
Y51045D01*
X-586831D01*
X-538308Y493003D02*
X-533230D01*
X-535769D01*
Y477768D01*
X-538308D01*
X-533230D01*
X-515455Y490464D02*
X-517995Y493003D01*
X-523073D01*
X-525612Y490464D01*
Y480307D01*
X-523073Y477768D01*
X-517995D01*
X-515455Y480307D01*
X-502760Y477768D02*
Y493003D01*
X-510377Y485386D01*
X-500220D01*
X-785450Y639307D02*
X-780372D01*
X-782911D01*
Y624072D01*
X-785450D01*
X-780372D01*
X-762597Y636768D02*
X-765137Y639307D01*
X-770215D01*
X-772754Y636768D01*
Y626611D01*
X-770215Y624072D01*
X-765137D01*
X-762597Y626611D01*
X-757519Y636768D02*
X-754980Y639307D01*
X-749902D01*
X-747362Y636768D01*
Y634229D01*
X-749902Y631689D01*
X-752441D01*
X-749902D01*
X-747362Y629150D01*
Y626611D01*
X-749902Y624072D01*
X-754980D01*
X-757519Y626611D01*
X-401148Y529579D02*
X-396070D01*
X-398609D01*
Y514344D01*
X-401148D01*
X-396070D01*
X-378295Y527040D02*
X-380835Y529579D01*
X-385913D01*
X-388452Y527040D01*
Y516883D01*
X-385913Y514344D01*
X-380835D01*
X-378295Y516883D01*
X-363060Y514344D02*
X-373217D01*
X-363060Y524501D01*
Y527040D01*
X-365600Y529579D01*
X-370678D01*
X-373217Y527040D01*
X-357982Y529579D02*
Y514344D01*
X-350364D01*
X-347825Y516883D01*
Y519422D01*
X-350364Y521962D01*
X-357982D01*
X-350364D01*
X-347825Y524501D01*
Y527040D01*
X-350364Y529579D01*
X-357982D01*
X-390988Y289549D02*
X-385910D01*
X-388449D01*
Y274314D01*
X-390988D01*
X-385910D01*
X-368135Y287010D02*
X-370675Y289549D01*
X-375753D01*
X-378292Y287010D01*
Y276853D01*
X-375753Y274314D01*
X-370675D01*
X-368135Y276853D01*
X-352900Y274314D02*
X-363057D01*
X-352900Y284471D01*
Y287010D01*
X-355439Y289549D01*
X-360518D01*
X-363057Y287010D01*
X-347822Y274314D02*
Y284471D01*
X-342744Y289549D01*
X-337665Y284471D01*
Y274314D01*
Y281931D01*
X-347822D01*
X-997540Y277611D02*
X-992462D01*
X-995001D01*
Y262376D01*
X-997540D01*
X-992462D01*
X-974687Y275072D02*
X-977227Y277611D01*
X-982305D01*
X-984844Y275072D01*
Y264915D01*
X-982305Y262376D01*
X-977227D01*
X-974687Y264915D01*
X-969609Y262376D02*
X-964531D01*
X-967070D01*
Y277611D01*
X-969609Y275072D01*
X-33105Y268213D02*
X-43262D01*
Y260595D01*
X-38184D01*
X-43262D01*
Y252978D01*
X-28027D02*
X-22949D01*
X-25488D01*
Y268213D01*
X-28027Y265674D01*
X-169246Y241543D02*
Y226308D01*
X-161628D01*
X-159089Y228847D01*
Y239004D01*
X-161628Y241543D01*
X-169246D01*
X-143854Y226308D02*
X-154011D01*
X-143854Y236465D01*
Y239004D01*
X-146393Y241543D01*
X-151472D01*
X-154011Y239004D01*
X-269322Y421629D02*
Y406394D01*
X-261705D01*
X-259165Y408933D01*
Y419090D01*
X-261705Y421629D01*
X-269322D01*
X-254087Y406394D02*
X-249009D01*
X-251548D01*
Y421629D01*
X-254087Y419090D01*
X-1214713Y672836D02*
X-1217253Y675375D01*
X-1222331D01*
X-1224870Y672836D01*
Y662679D01*
X-1222331Y660140D01*
X-1217253D01*
X-1214713Y662679D01*
X-1209635Y660140D02*
Y675375D01*
X-1199478Y660140D01*
Y675375D01*
X-1194400D02*
X-1184243D01*
Y672836D01*
X-1194400Y662679D01*
Y660140D01*
X-1214713Y522722D02*
X-1217253Y525261D01*
X-1222331D01*
X-1224870Y522722D01*
Y512565D01*
X-1222331Y510026D01*
X-1217253D01*
X-1214713Y512565D01*
X-1209635Y510026D02*
Y525261D01*
X-1199478Y510026D01*
Y525261D01*
X-1184243D02*
X-1189322Y522722D01*
X-1194400Y517644D01*
Y512565D01*
X-1191861Y510026D01*
X-1186782D01*
X-1184243Y512565D01*
Y515104D01*
X-1186782Y517644D01*
X-1194400D01*
X-1209887Y132832D02*
X-1212427Y135371D01*
X-1217505D01*
X-1220044Y132832D01*
Y122675D01*
X-1217505Y120136D01*
X-1212427D01*
X-1209887Y122675D01*
X-1204809Y120136D02*
Y135371D01*
X-1194652Y120136D01*
Y135371D01*
X-1179417D02*
X-1189574D01*
Y127753D01*
X-1184495Y130293D01*
X-1181956D01*
X-1179417Y127753D01*
Y122675D01*
X-1181956Y120136D01*
X-1187035D01*
X-1189574Y122675D01*
X-89747Y522722D02*
X-92287Y525261D01*
X-97365D01*
X-99904Y522722D01*
Y512565D01*
X-97365Y510026D01*
X-92287D01*
X-89747Y512565D01*
X-84669Y510026D02*
Y525261D01*
X-74512Y510026D01*
Y525261D01*
X-61816Y510026D02*
Y525261D01*
X-69434Y517644D01*
X-59277D01*
X-84921Y662930D02*
X-87460Y665469D01*
X-92539D01*
X-95078Y662930D01*
Y652773D01*
X-92539Y650234D01*
X-87460D01*
X-84921Y652773D01*
X-79843Y650234D02*
Y665469D01*
X-69686Y650234D01*
Y665469D01*
X-64608Y662930D02*
X-62069Y665469D01*
X-56990D01*
X-54451Y662930D01*
Y660391D01*
X-56990Y657851D01*
X-59530D01*
X-56990D01*
X-54451Y655312D01*
Y652773D01*
X-56990Y650234D01*
X-62069D01*
X-64608Y652773D01*
X-84921Y212842D02*
X-87460Y215381D01*
X-92539D01*
X-95078Y212842D01*
Y202685D01*
X-92539Y200146D01*
X-87460D01*
X-84921Y202685D01*
X-79843Y200146D02*
Y215381D01*
X-69686Y200146D01*
Y215381D01*
X-54451Y200146D02*
X-64608D01*
X-54451Y210303D01*
Y212842D01*
X-56990Y215381D01*
X-62069D01*
X-64608Y212842D01*
X-234781Y757926D02*
X-237320Y760465D01*
X-242399D01*
X-244938Y757926D01*
Y747769D01*
X-242399Y745230D01*
X-237320D01*
X-234781Y747769D01*
X-229703Y745230D02*
Y760465D01*
X-219546Y745230D01*
Y760465D01*
X-214468Y745230D02*
X-209389D01*
X-211929D01*
Y760465D01*
X-214468Y757926D01*
X-962999Y416550D02*
X-965538Y419089D01*
X-970617D01*
X-973156Y416550D01*
Y406393D01*
X-970617Y403854D01*
X-965538D01*
X-962999Y406393D01*
X-957921Y403854D02*
X-952843D01*
X-955382D01*
Y419089D01*
X-957921Y416550D01*
X-945225D02*
X-942686Y419089D01*
X-937607D01*
X-935068Y416550D01*
Y414011D01*
X-937607Y411471D01*
X-935068Y408932D01*
Y406393D01*
X-937607Y403854D01*
X-942686D01*
X-945225Y406393D01*
Y408932D01*
X-942686Y411471D01*
X-945225Y414011D01*
Y416550D01*
X-942686Y411471D02*
X-937607D01*
X-1013037Y416550D02*
X-1015576Y419089D01*
X-1020655D01*
X-1023194Y416550D01*
Y406393D01*
X-1020655Y403854D01*
X-1015576D01*
X-1013037Y406393D01*
X-1007959Y403854D02*
X-1002881D01*
X-1005420D01*
Y419089D01*
X-1007959Y416550D01*
X-995263Y419089D02*
X-985106D01*
Y416550D01*
X-995263Y406393D01*
Y403854D01*
X-1063075Y416550D02*
X-1065614Y419089D01*
X-1070693D01*
X-1073232Y416550D01*
Y406393D01*
X-1070693Y403854D01*
X-1065614D01*
X-1063075Y406393D01*
X-1057997Y403854D02*
X-1052919D01*
X-1055458D01*
Y419089D01*
X-1057997Y416550D01*
X-1035144Y419089D02*
X-1040223Y416550D01*
X-1045301Y411471D01*
Y406393D01*
X-1042762Y403854D01*
X-1037683D01*
X-1035144Y406393D01*
Y408932D01*
X-1037683Y411471D01*
X-1045301D01*
X-1113113Y416550D02*
X-1115652Y419089D01*
X-1120731D01*
X-1123270Y416550D01*
Y406393D01*
X-1120731Y403854D01*
X-1115652D01*
X-1113113Y406393D01*
X-1108035Y403854D02*
X-1102957D01*
X-1105496D01*
Y419089D01*
X-1108035Y416550D01*
X-1085182Y419089D02*
X-1095339D01*
Y411471D01*
X-1090261Y414011D01*
X-1087721D01*
X-1085182Y411471D01*
Y406393D01*
X-1087721Y403854D01*
X-1092800D01*
X-1095339Y406393D01*
X-1000083Y696458D02*
X-1002623Y698997D01*
X-1007701D01*
X-1010240Y696458D01*
Y686301D01*
X-1007701Y683762D01*
X-1002623D01*
X-1000083Y686301D01*
X-995005Y683762D02*
X-989927D01*
X-992466D01*
Y698997D01*
X-995005Y696458D01*
X-974691Y683762D02*
Y698997D01*
X-982309Y691379D01*
X-972152D01*
X-1000083Y646674D02*
X-1002623Y649213D01*
X-1007701D01*
X-1010240Y646674D01*
Y636517D01*
X-1007701Y633978D01*
X-1002623D01*
X-1000083Y636517D01*
X-995005Y633978D02*
X-989927D01*
X-992466D01*
Y649213D01*
X-995005Y646674D01*
X-982309D02*
X-979770Y649213D01*
X-974691D01*
X-972152Y646674D01*
Y644135D01*
X-974691Y641596D01*
X-977231D01*
X-974691D01*
X-972152Y639056D01*
Y636517D01*
X-974691Y633978D01*
X-979770D01*
X-982309Y636517D01*
X-952839Y756656D02*
X-955378Y759195D01*
X-960457D01*
X-962996Y756656D01*
Y746499D01*
X-960457Y743960D01*
X-955378D01*
X-952839Y746499D01*
X-947761Y743960D02*
X-942683D01*
X-945222D01*
Y759195D01*
X-947761Y756656D01*
X-924908Y743960D02*
X-935065D01*
X-924908Y754117D01*
Y756656D01*
X-927448Y759195D01*
X-932526D01*
X-935065Y756656D01*
X-1000083D02*
X-1002623Y759195D01*
X-1007701D01*
X-1010240Y756656D01*
Y746499D01*
X-1007701Y743960D01*
X-1002623D01*
X-1000083Y746499D01*
X-995005Y743960D02*
X-989927D01*
X-992466D01*
Y759195D01*
X-995005Y756656D01*
X-982309Y743960D02*
X-977231D01*
X-979770D01*
Y759195D01*
X-982309Y756656D01*
X-496401Y623052D02*
X-498941Y625591D01*
X-504019D01*
X-506558Y623052D01*
Y612895D01*
X-504019Y610356D01*
X-498941D01*
X-496401Y612895D01*
X-491323Y610356D02*
X-486245D01*
X-488784D01*
Y625591D01*
X-491323Y623052D01*
X-478627D02*
X-476088Y625591D01*
X-471009D01*
X-468470Y623052D01*
Y612895D01*
X-471009Y610356D01*
X-476088D01*
X-478627Y612895D01*
Y623052D01*
X-368893Y395214D02*
X-371432Y397753D01*
X-376511D01*
X-379050Y395214D01*
Y385057D01*
X-376511Y382518D01*
X-371432D01*
X-368893Y385057D01*
X-363815D02*
X-361276Y382518D01*
X-356197D01*
X-353658Y385057D01*
Y395214D01*
X-356197Y397753D01*
X-361276D01*
X-363815Y395214D01*
Y392675D01*
X-361276Y390135D01*
X-353658D01*
X-646769Y503164D02*
X-649308Y505703D01*
X-654387D01*
X-656926Y503164D01*
Y493007D01*
X-654387Y490468D01*
X-649308D01*
X-646769Y493007D01*
X-641691Y503164D02*
X-639152Y505703D01*
X-634073D01*
X-631534Y503164D01*
Y500625D01*
X-634073Y498086D01*
X-631534Y495546D01*
Y493007D01*
X-634073Y490468D01*
X-639152D01*
X-641691Y493007D01*
Y495546D01*
X-639152Y498086D01*
X-641691Y500625D01*
Y503164D01*
X-639152Y498086D02*
X-634073D01*
X-962999Y366512D02*
X-965538Y369051D01*
X-970617D01*
X-973156Y366512D01*
Y356355D01*
X-970617Y353816D01*
X-965538D01*
X-962999Y356355D01*
X-957921Y369051D02*
X-947764D01*
Y366512D01*
X-957921Y356355D01*
Y353816D01*
X-768943Y495290D02*
X-771482Y497829D01*
X-776561D01*
X-779100Y495290D01*
Y485133D01*
X-776561Y482594D01*
X-771482D01*
X-768943Y485133D01*
X-753708Y497829D02*
X-758787Y495290D01*
X-763865Y490211D01*
Y485133D01*
X-761326Y482594D01*
X-756247D01*
X-753708Y485133D01*
Y487672D01*
X-756247Y490211D01*
X-763865D01*
X-1113113Y316474D02*
X-1115652Y319013D01*
X-1120731D01*
X-1123270Y316474D01*
Y306317D01*
X-1120731Y303778D01*
X-1115652D01*
X-1113113Y306317D01*
X-1097878Y319013D02*
X-1108035D01*
Y311395D01*
X-1102957Y313935D01*
X-1100417D01*
X-1097878Y311395D01*
Y306317D01*
X-1100417Y303778D01*
X-1105496D01*
X-1108035Y306317D01*
X-1113113Y366512D02*
X-1115652Y369051D01*
X-1120731D01*
X-1123270Y366512D01*
Y356355D01*
X-1120731Y353816D01*
X-1115652D01*
X-1113113Y356355D01*
X-1100417Y353816D02*
Y369051D01*
X-1108035Y361433D01*
X-1097878D01*
X-1063075Y366512D02*
X-1065614Y369051D01*
X-1070693D01*
X-1073232Y366512D01*
Y356355D01*
X-1070693Y353816D01*
X-1065614D01*
X-1063075Y356355D01*
X-1057997Y366512D02*
X-1055458Y369051D01*
X-1050379D01*
X-1047840Y366512D01*
Y363973D01*
X-1050379Y361433D01*
X-1052919D01*
X-1050379D01*
X-1047840Y358894D01*
Y356355D01*
X-1050379Y353816D01*
X-1055458D01*
X-1057997Y356355D01*
X-379307Y643118D02*
X-381847Y645657D01*
X-386925D01*
X-389464Y643118D01*
Y632961D01*
X-386925Y630422D01*
X-381847D01*
X-379307Y632961D01*
X-364072Y630422D02*
X-374229D01*
X-364072Y640579D01*
Y643118D01*
X-366611Y645657D01*
X-371690D01*
X-374229Y643118D01*
X-1013037Y366512D02*
X-1015576Y369051D01*
X-1020655D01*
X-1023194Y366512D01*
Y356355D01*
X-1020655Y353816D01*
X-1015576D01*
X-1013037Y356355D01*
X-1007959Y353816D02*
X-1002881D01*
X-1005420D01*
Y369051D01*
X-1007959Y366512D01*
M02*
