G04*
G04 #@! TF.GenerationSoftware,Altium Limited,Altium Designer,24.2.2 (26)*
G04*
G04 Layer_Color=32896*
%FSLAX44Y44*%
%MOMM*%
G71*
G04*
G04 #@! TF.SameCoordinates,10A94CF6-3787-4B2F-9572-986175F5FC9A*
G04*
G04*
G04 #@! TF.FilePolarity,Positive*
G04*
G01*
G75*
%ADD11C,0.2000*%
%ADD14C,0.2500*%
%ADD16C,0.2540*%
%ADD79C,0.1000*%
D11*
X-903300Y679000D02*
X-463300D01*
Y749000D01*
X-903300D02*
X-463300D01*
X-903300Y679000D02*
Y749000D01*
X-125000Y598750D02*
Y639500D01*
Y500500D02*
Y541250D01*
X-255000Y500500D02*
X-226500D01*
X-203500D02*
X-201500D01*
X-178500D02*
X-176500D01*
X-153500D02*
X-125000D01*
X-255000Y598750D02*
Y639500D01*
Y500500D02*
Y541250D01*
Y639500D02*
X-125000D01*
D14*
X-163250Y477750D02*
G03*
X-163250Y477750I-1250J0D01*
G01*
D16*
X-873080Y782309D02*
X-878158D01*
X-875619D01*
Y767074D01*
X-873080D01*
X-878158D01*
X-895933Y779770D02*
X-893393Y782309D01*
X-888315D01*
X-885776Y779770D01*
Y769613D01*
X-888315Y767074D01*
X-893393D01*
X-895933Y769613D01*
X-911168Y767074D02*
X-901011D01*
X-911168Y777231D01*
Y779770D01*
X-908628Y782309D01*
X-903550D01*
X-901011Y779770D01*
X-220043Y664453D02*
X-209886D01*
Y649218D01*
X-220043D01*
X-209886Y656835D02*
X-214964D01*
X-225121Y649218D02*
Y664453D01*
X-235278Y649218D01*
Y664453D01*
X-250513Y661914D02*
X-247974Y664453D01*
X-242895D01*
X-240356Y661914D01*
Y651757D01*
X-242895Y649218D01*
X-247974D01*
X-250513Y651757D01*
X-255591Y649218D02*
X-260670D01*
X-258130D01*
Y664453D01*
X-255591Y661914D01*
D79*
X-907700Y640000D02*
G03*
X-906700Y640000I500J0D01*
G01*
D02*
G03*
X-907700Y640000I-500J0D01*
G01*
M02*
