G04*
G04 #@! TF.GenerationSoftware,Altium Limited,Altium Designer,24.2.2 (26)*
G04*
G04 Layer_Physical_Order=2*
G04 Layer_Color=16711680*
%FSLAX44Y44*%
%MOMM*%
G71*
G04*
G04 #@! TF.SameCoordinates,10A94CF6-3787-4B2F-9572-986175F5FC9A*
G04*
G04*
G04 #@! TF.FilePolarity,Positive*
G04*
G01*
G75*
%ADD16C,0.2540*%
G04:AMPARAMS|DCode=28|XSize=2.4mm|YSize=5mm|CornerRadius=1.2mm|HoleSize=0mm|Usage=FLASHONLY|Rotation=180.000|XOffset=0mm|YOffset=0mm|HoleType=Round|Shape=RoundedRectangle|*
%AMROUNDEDRECTD28*
21,1,2.4000,2.6000,0,0,180.0*
21,1,0.0000,5.0000,0,0,180.0*
1,1,2.4000,0.0000,1.3000*
1,1,2.4000,0.0000,1.3000*
1,1,2.4000,0.0000,-1.3000*
1,1,2.4000,0.0000,-1.3000*
%
%ADD28ROUNDEDRECTD28*%
%ADD29C,1.5500*%
%ADD30R,1.5500X1.5500*%
%ADD46R,2.0000X2.0000*%
%ADD47C,2.0000*%
%ADD49C,1.3500*%
%ADD50R,1.3500X1.3500*%
%ADD53C,0.2540*%
%ADD59R,1.2000X1.2000*%
%ADD60C,1.2000*%
%ADD61C,1.9500*%
%ADD62R,1.1900X1.1900*%
%ADD63C,1.1900*%
%ADD64C,1.6000*%
G04:AMPARAMS|DCode=65|XSize=1.6mm|YSize=1.6mm|CornerRadius=0.4mm|HoleSize=0mm|Usage=FLASHONLY|Rotation=90.000|XOffset=0mm|YOffset=0mm|HoleType=Round|Shape=RoundedRectangle|*
%AMROUNDEDRECTD65*
21,1,1.6000,0.8000,0,0,90.0*
21,1,0.8000,1.6000,0,0,90.0*
1,1,0.8000,0.4000,0.4000*
1,1,0.8000,0.4000,-0.4000*
1,1,0.8000,-0.4000,-0.4000*
1,1,0.8000,-0.4000,0.4000*
%
%ADD65ROUNDEDRECTD65*%
%ADD66C,1.1000*%
%ADD67R,1.1000X1.1000*%
%ADD68C,1.5000*%
%ADD69R,1.5000X1.5000*%
%ADD70C,1.0500*%
%ADD71R,1.0500X1.0500*%
%ADD72C,1.9200*%
%ADD73R,1.9200X1.9200*%
G04:AMPARAMS|DCode=74|XSize=1.6mm|YSize=1.6mm|CornerRadius=0.4mm|HoleSize=0mm|Usage=FLASHONLY|Rotation=180.000|XOffset=0mm|YOffset=0mm|HoleType=Round|Shape=RoundedRectangle|*
%AMROUNDEDRECTD74*
21,1,1.6000,0.8000,0,0,180.0*
21,1,0.8000,1.6000,0,0,180.0*
1,1,0.8000,-0.4000,0.4000*
1,1,0.8000,0.4000,0.4000*
1,1,0.8000,0.4000,-0.4000*
1,1,0.8000,-0.4000,-0.4000*
%
%ADD74ROUNDEDRECTD74*%
%ADD75C,1.1300*%
%ADD76R,1.1300X1.1300*%
%ADD77C,3.2700*%
%ADD78C,1.2700*%
D16*
X-1156643Y16411D02*
X-1156642Y16411D01*
X-1163859Y24287D02*
G03*
X-1207483Y58517I-222255J-238342D01*
G01*
X-1208614Y60610D02*
G03*
X-1207483Y58517I2540J20D01*
G01*
X-1156752Y16521D02*
G03*
X-1163859Y24287I-52568J-40970D01*
G01*
X-909743Y11170D02*
G03*
X-894057Y11170I7843J8830D01*
G01*
X-820499Y6769D02*
G03*
X-798953Y7223I10499J13231D01*
G01*
X-770640Y10426D02*
G03*
X-770644Y10423I1796J-1796D01*
G01*
X-608643Y11170D02*
G03*
X-592958Y11170I7843J8830D01*
G01*
X-583243D02*
G03*
X-572492Y8554I7843J8830D01*
G01*
X-527508Y8554D02*
G03*
X-516758Y11170I2908J11446D01*
G01*
X-403243D02*
G03*
X-387557Y11170I7843J8830D01*
G01*
X-377843D02*
G03*
X-362157Y11170I7843J8830D01*
G01*
X-352443D02*
G03*
X-336757Y11170I7843J8830D01*
G01*
X-327043D02*
G03*
X-311357Y11170I7843J8830D01*
G01*
X-137843D02*
G03*
X-122157Y11170I7843J8830D01*
G01*
X-965861Y9414D02*
G03*
X-941653Y7223I13161J10586D01*
G01*
X-938346Y7223D02*
G03*
X-941653Y7223I-1653J-1928D01*
G01*
X-913340Y10426D02*
G03*
X-913344Y10423I1796J-1796D01*
G01*
X-821349Y6769D02*
X-821350D01*
X-962057Y12795D02*
G03*
X-943657Y12404I9358J7205D01*
G01*
X-795647Y7223D02*
G03*
X-798953Y7223I-1653J-1928D01*
G01*
X-795647Y7223D02*
G03*
X-770790Y10277I11047J12777D01*
G01*
X-793643Y12404D02*
G03*
X-774719Y13532I9043J7597D01*
G01*
X-818547Y11849D02*
G03*
X-800958Y12404I8547J8151D01*
G01*
X-701405Y13067D02*
G03*
X-701557Y12431I11405J-3067D01*
G01*
X-679542Y15488D02*
G03*
X-700374Y15644I-10458J-5488D01*
G01*
X-679542Y15488D02*
G03*
X-675057Y15488I2242J1193D01*
G01*
X-653041Y12421D02*
G03*
X-675057Y15488I-11559J-2421D01*
G01*
X-112443Y11170D02*
G03*
X-100726Y8844I7843J8830D01*
G01*
X-938346Y7223D02*
G03*
X-913489Y10277I11047J12777D01*
G01*
X-936342Y12404D02*
G03*
X-917419Y13532I9043J7597D01*
G01*
X-992812Y15667D02*
X-992068Y14923D01*
X-1156643Y16411D02*
X-1155899Y15667D01*
X-1208614Y60610D02*
X-1208614Y60630D01*
X-1155899Y15667D02*
X-992812D01*
X-1156752Y16521D02*
X-1156643Y16411D01*
X-1208614Y60630D02*
Y78480D01*
X-992068Y14923D02*
X-985335Y8190D01*
X-913489Y10277D02*
X-913344Y10423D01*
X-701405Y13067D02*
X-701042Y14417D01*
X-572492Y8554D02*
X-572190D01*
X-572190D02*
X-571138D01*
X-565626Y3042D01*
X-534374D01*
X-528862Y8554D01*
X-527810D01*
X-527810D02*
X-527508D01*
X-516758Y11170D02*
X-509415D01*
X-506435Y8190D01*
X-491965D01*
X-488985Y11170D01*
X-431015D01*
X-428035Y8190D01*
X-413565D01*
X-410585Y11170D01*
X-403243D01*
X-92538Y12658D02*
Y27680D01*
X-387557Y11170D02*
X-377843D01*
X-362157D02*
X-352443D01*
X-985335Y8190D02*
X-970865D01*
X-336757Y11170D02*
X-327043D01*
X-970865Y8190D02*
X-968803Y10252D01*
X-966699D01*
X-122157Y11170D02*
X-112443D01*
X-100726Y8844D02*
X-94026Y11170D01*
X-92538Y12658D01*
X-913340Y10426D02*
X-912596Y11170D01*
X-909743D01*
X-914700Y16250D02*
X-901900Y20000D01*
X-894057Y11170D02*
X-852799D01*
X-917419Y13532D02*
X-914700Y16250D01*
X-852799Y11170D02*
X-844739Y3110D01*
X-943146Y12915D02*
X-936854D01*
X-822402Y6769D02*
X-821350D01*
X-943657Y12404D02*
X-943146Y12915D01*
X-821349Y6769D02*
X-820499D01*
X-964594Y15332D02*
X-962057Y12795D01*
X-974100Y16000D02*
X-964594Y15332D01*
X-978100Y20000D02*
X-974100Y16000D01*
X-770790Y10277D02*
X-770644Y10423D01*
X-719400Y14000D02*
X-715400Y10000D01*
X-770640Y10426D02*
X-769896Y11170D01*
X-726594Y16250D02*
X-719400Y14000D01*
X-769896Y11170D02*
X-728698D01*
X-772001Y16250D02*
X-726594D01*
X-728698Y11170D02*
X-727210Y9682D01*
X-774719Y13532D02*
X-772001Y16250D01*
X-727210Y2765D02*
Y9682D01*
Y2765D02*
X-722635Y-1810D01*
X-794154Y12915D02*
X-793643Y12404D01*
X-722635Y-1810D02*
X-708165D01*
X-800446Y12915D02*
X-794154D01*
X-708165Y-1810D02*
X-703590Y2765D01*
X-701557Y12431D01*
X-701042Y14417D02*
X-700374Y15644D01*
X-653041Y12421D02*
X-652534Y11914D01*
X-651790Y11170D02*
X-608643D01*
X-592958D02*
X-583243D01*
X-311357D02*
X-137843D01*
X-966699Y10252D02*
X-965861Y9414D01*
X-652534Y11914D02*
X-651790Y11170D01*
X-800958Y12404D02*
X-800446Y12915D01*
X-842635Y8190D02*
X-828165D01*
X-844739Y3110D02*
X-826061D01*
X-828165Y8190D02*
X-824506Y11849D01*
X-818547D01*
X-850695Y16250D02*
X-842635Y8190D01*
X-901900Y20000D02*
X-850695Y16250D01*
X-936854Y12915D02*
X-936342Y12404D01*
X-826061Y3110D02*
X-822402Y6769D01*
X-1219840Y251637D02*
X-1209840Y261637D01*
X-1219840Y244850D02*
Y251637D01*
X-1190449Y295396D02*
X-1167212D01*
X-1232998Y252847D02*
X-1190449Y295396D01*
X-1232998Y195320D02*
Y252847D01*
X-1219840Y244850D02*
X-1130429Y155439D01*
Y152441D02*
X-1042963Y64975D01*
X-1130429Y152441D02*
Y155439D01*
X-1107100Y619200D02*
X-1047100D01*
X-1107100Y720800D02*
X-1047100D01*
X-715000Y440000D02*
X-627500D01*
X-592500D01*
X-505400Y447000D02*
X-480000D01*
X-510000Y290000D02*
X-484600D01*
X-499200Y20000D02*
X-420800D01*
X-319200D02*
X-130000D01*
X-536478Y8122D02*
X-524600Y20000D01*
X-563522Y8122D02*
X-536478D01*
X-575400Y20000D02*
X-563522Y8122D01*
X-331198Y31998D02*
X-319200Y20000D01*
X-408802Y31998D02*
X-331198D01*
X-420800Y20000D02*
X-408802Y31998D01*
X-1092300Y537500D02*
X-1072446Y517646D01*
X-972902D01*
X-866730Y623818D01*
X-68818D01*
X-60000Y615000D01*
X-729392Y264408D02*
X-703800Y290000D01*
X-745592Y264408D02*
X-729392D01*
X-770000Y240000D02*
X-745592Y264408D01*
X-795400Y240000D02*
X-761340Y274060D01*
X-745140D01*
X-729200Y290000D01*
X-323342Y410458D02*
X-311900Y421900D01*
X-351258Y410458D02*
X-323342D01*
X-362700Y421900D02*
X-351258Y410458D01*
X-890352Y579622D02*
X-852252Y617722D01*
X-677822D01*
X-667900Y607800D01*
X-139415Y54815D02*
X-104600Y20000D01*
X-1179815Y54815D02*
X-139415D01*
X-1195000Y70000D02*
X-1179815Y54815D01*
X-105410Y69590D02*
X-60000Y115000D01*
X-643065Y69590D02*
X-105410D01*
X-647680Y64975D02*
X-643065Y69590D01*
X-1042963Y64975D02*
X-647680D01*
X-348718Y433318D02*
X-337300Y421900D01*
X-440059Y433318D02*
X-348718D01*
X-504575Y368802D02*
X-440059Y433318D01*
X-1119750Y368802D02*
X-504575D01*
X-719200Y85695D02*
X-673075Y131820D01*
X-166820D01*
X-145000Y110000D01*
X-350000D02*
Y115658D01*
X-344760Y120898D01*
X-179406D01*
X-154768Y96260D01*
X-134194D01*
X-617600Y85695D02*
X-607040Y96255D01*
X-509860D01*
X-505440Y91835D01*
Y83204D02*
Y91835D01*
Y83204D02*
X-497160Y74924D01*
X-433152D01*
X-425024Y83052D01*
X-310910Y172890D02*
X-301900Y181900D01*
X-310910Y168880D02*
Y172890D01*
X-314280Y165510D02*
X-310910Y168880D01*
X-339680Y165510D02*
X-314280D01*
X-343690Y169520D02*
X-339680Y165510D01*
X-343690Y169520D02*
Y172890D01*
X-352700Y181900D02*
X-343690Y172890D01*
X-1047100Y644600D02*
X-1023940Y667760D01*
X-728046D01*
X-948772Y182620D02*
X-408451D01*
X-397783Y193288D01*
X-369257D01*
X-364254Y198290D01*
X-339280D01*
X-336310Y195320D01*
Y190910D02*
Y195320D01*
Y190910D02*
X-327300Y181900D01*
X-239096Y413760D02*
X-200460Y375124D01*
Y203953D02*
Y375124D01*
X-243983Y160430D02*
X-200460Y203953D01*
X-349287Y160430D02*
X-243983D01*
X-357761Y168904D02*
X-349287Y160430D01*
X-654132Y168904D02*
X-357761D01*
X-733888Y89148D02*
X-654132Y168904D01*
X-733888Y78480D02*
Y89148D01*
X-737233Y75135D02*
X-733888Y78480D01*
X-766655Y75135D02*
X-737233D01*
X-770000Y78480D02*
X-766655Y75135D01*
X-770000Y78480D02*
Y85695D01*
X-85002Y539998D02*
X-60000Y565000D01*
X-725760Y539998D02*
X-85002D01*
X-729316Y536442D02*
X-725760Y539998D01*
X-729316Y523742D02*
Y536442D01*
X-766400Y486658D02*
X-729316Y523742D01*
X-861396Y486658D02*
X-766400D01*
X-902798Y445256D02*
X-861396Y486658D01*
X-1075056Y445256D02*
X-902798D01*
X-1092300Y462500D02*
X-1075056Y445256D01*
X-790276Y460750D02*
X-780116D01*
X-723728Y517138D01*
X-280752D01*
X-242144Y478530D01*
X-208870D01*
X-110000Y379660D01*
Y350000D02*
Y379660D01*
X-765000Y440000D02*
X-763426Y438427D01*
X-741301D01*
X-739727Y440000D01*
X-715000D01*
X-529957Y309957D02*
X-510000Y290000D01*
X-574643Y309957D02*
X-529957D01*
X-594600Y290000D02*
X-574643Y309957D01*
X-585298Y157220D02*
X-583428Y155350D01*
X-190350D01*
X-607840Y224360D02*
X-592200Y240000D01*
X-709441Y224360D02*
X-607840D01*
X-714437Y229356D02*
X-709441Y224360D01*
X-878160Y229356D02*
X-714437D01*
X-882224Y233420D02*
X-878160Y229356D01*
X-882224Y233420D02*
Y251200D01*
X-892892Y261868D02*
X-882224Y251200D01*
X-1017098Y261868D02*
X-892892D01*
X-1068914Y313684D02*
X-1017098Y261868D01*
X-122700Y350000D02*
Y382962D01*
X-197186Y457448D02*
X-122700Y382962D01*
X-250780Y457448D02*
X-197186D01*
X-302850Y509518D02*
X-250780Y457448D01*
X-714330Y509518D02*
X-302850D01*
X-784688Y439160D02*
X-714330Y509518D01*
X-784688Y433064D02*
Y439160D01*
X-1124032Y653068D02*
X-1107100Y670000D01*
X-1124032Y606800D02*
Y653068D01*
Y606800D02*
X-1116920Y599688D01*
X-999318D01*
X-973200Y85695D02*
X-957047Y101848D01*
X-860126D01*
X-152482Y715766D02*
X-119716Y683000D01*
X-215220Y715766D02*
X-152482D01*
X-220000Y710986D02*
X-215220Y715766D01*
X-220000Y700000D02*
Y710986D01*
X-1107100Y670000D02*
X-1094354Y682746D01*
X-139871D01*
X-129876Y672751D01*
X-46221D01*
X-41230Y667760D01*
Y538220D02*
Y667760D01*
X-106762Y472688D02*
X-41230Y538220D01*
X-189566Y472688D02*
X-106762D01*
X-201758Y484880D02*
X-189566Y472688D01*
X-201758Y484880D02*
Y505200D01*
X-196678Y510280D01*
X-180280D01*
X-165000Y495000D01*
X-423754Y197860D02*
X-415880Y205734D01*
X-383876D01*
X-350550Y239060D01*
X-208640D01*
X-205540Y235960D01*
Y215668D02*
Y235960D01*
X-215474Y205734D02*
X-205540Y215668D01*
X-436357Y446272D02*
X-215982D01*
X-482840Y399790D02*
X-436357Y446272D01*
X-821010Y399790D02*
X-482840D01*
X-851380Y317494D02*
X-805406Y363468D01*
X-421132D01*
X-362700Y421900D01*
X-462870Y267202D02*
Y302000D01*
X-487254Y326384D02*
X-462870Y302000D01*
X-800509Y326384D02*
X-487254D01*
X-848769Y278124D02*
X-800509Y326384D01*
X-899242Y278124D02*
X-848769D01*
X-902798Y281680D02*
X-899242Y278124D01*
X-902798Y281680D02*
Y306826D01*
X-314974Y193288D02*
X-262718D01*
X-315990Y192272D02*
X-314974Y193288D01*
X-315990Y173960D02*
Y192272D01*
X-319360Y170590D02*
X-315990Y173960D01*
X-334600Y170590D02*
X-319360D01*
X-338410Y174400D02*
X-334600Y170590D01*
X-338410Y174400D02*
Y178556D01*
X-341390Y181536D02*
X-338410Y178556D01*
X-341390Y181536D02*
Y190240D01*
X-344360Y193210D02*
X-341390Y190240D01*
X-358808Y193210D02*
X-344360D01*
X-370118Y181900D02*
X-358808Y193210D01*
X-378100Y181900D02*
X-370118D01*
X-526771Y74924D02*
X-516000Y85695D01*
X-556029Y74924D02*
X-526771D01*
X-566800Y85695D02*
X-556029Y74924D01*
X-643464Y272028D02*
X-561676D01*
X-920288Y294888D02*
X-915400Y290000D01*
X-1005922Y294888D02*
X-920288D01*
X-1016430Y284380D02*
X-1005922Y294888D01*
X-633270Y303270D02*
X-620000Y290000D01*
X-673182Y303270D02*
X-633270D01*
X-679532Y296920D02*
X-673182Y303270D01*
X-679532Y269996D02*
Y296920D01*
X-958492Y250692D02*
X-947800Y240000D01*
X-1061040Y250692D02*
X-958492D01*
X-1203788Y393440D02*
X-1061040Y250692D01*
X-1203788Y393440D02*
Y437382D01*
X-1193120Y448050D01*
X-1177880D01*
X-1164164Y434334D01*
X-894416D01*
X-852252Y476498D01*
X-821518D01*
X-809580Y464560D01*
Y439414D02*
Y464560D01*
Y439414D02*
X-786720Y416554D01*
X-633380D01*
X-821600Y290000D02*
X-805400D01*
X-871600Y240000D02*
X-821600Y290000D01*
X-791876Y278124D02*
X-780000Y290000D01*
X-808076Y278124D02*
X-791876D01*
X-846200Y240000D02*
X-808076Y278124D01*
X-766476D02*
X-754600Y290000D01*
X-782676Y278124D02*
X-766476D01*
X-820800Y240000D02*
X-782676Y278124D01*
X-723288Y218688D02*
X-402418D01*
X-668400Y240000D02*
X-660120D01*
X-649560Y250560D01*
X-585928D01*
X-581488Y246120D01*
Y235960D02*
Y246120D01*
Y235960D02*
X-574884Y229356D01*
X-377018D01*
X-365334Y241040D01*
Y267456D01*
X-285070Y347720D01*
X-657210Y314954D02*
X-586568D01*
X-827360Y386328D02*
X-509098D01*
X-838536Y397504D02*
X-827360Y386328D01*
X-838536Y462500D02*
X-838500D01*
X-1079000Y575000D02*
X-1041500Y537500D01*
X-1190000Y575000D02*
X-1079000D01*
X-343808Y230000D02*
X-240000D01*
X-374170Y199638D02*
X-343808Y230000D01*
X-401592Y199638D02*
X-374170D01*
X-413531Y187700D02*
X-401592Y199638D01*
X-433914Y187700D02*
X-413531D01*
X-445852Y199638D02*
X-433914Y187700D01*
X-1024962Y199638D02*
X-445852D01*
X-1040000Y184600D02*
X-1024962Y199638D01*
X-1190000Y399718D02*
Y425000D01*
Y399718D02*
X-1128096Y337814D01*
X-888828D01*
X-846945Y295931D01*
X-841587D01*
X-799704Y337814D01*
X-426802D01*
X-396576Y368040D01*
X-324842D01*
X-257024Y435858D01*
X-203536D01*
X-150450Y382772D01*
Y331354D02*
Y382772D01*
Y331354D02*
X-98296Y279200D01*
X-40000D01*
Y304600D02*
X-28022Y292622D01*
Y75178D02*
Y292622D01*
X-70440Y32760D02*
X-28022Y75178D01*
X-87458Y32760D02*
X-70440D01*
X-92538Y27680D02*
X-87458Y32760D01*
X-1208614Y78480D02*
X-1203534Y83560D01*
X-1158560D01*
X-1145000Y70000D01*
X-1232998Y195320D02*
X-1097573Y59895D01*
X-642600D01*
X-639509Y62986D01*
X-61804D01*
X-46310Y78480D01*
Y151310D01*
X-60000Y165000D02*
X-46310Y151310D01*
X-434168Y250692D02*
X-397680Y287180D01*
X-568323Y250692D02*
X-434168D01*
X-573272Y255640D02*
X-568323Y250692D01*
X-670012Y255640D02*
X-573272D01*
X-681056Y244596D02*
X-670012Y255640D01*
X-683512Y229440D02*
X-681056Y244596D01*
X-700360Y229440D02*
X-683512D01*
X-710920Y240000D02*
X-700360Y229440D01*
X-719200Y240000D02*
X-710920D01*
X-719200D02*
X-691978Y267222D01*
Y296920D01*
X-697058Y302000D02*
X-691978Y296920D01*
X-817708Y302000D02*
X-697058D01*
X-846664Y273044D02*
X-817708Y302000D01*
X-946232Y273044D02*
X-846664D01*
X-957408Y284220D02*
X-946232Y273044D01*
X-227158Y429000D02*
X-218776Y420618D01*
X-251079Y429000D02*
X-227158D01*
X-324485Y355594D02*
X-251079Y429000D01*
X-368382Y355594D02*
X-324485D01*
X-452710Y271266D02*
X-368382Y355594D01*
X-452710Y260852D02*
Y271266D01*
X-456520Y257042D02*
X-452710Y260852D01*
X-472858Y257042D02*
X-456520D01*
X-476536Y260720D02*
X-472858Y257042D01*
X-673080Y260720D02*
X-476536D01*
X-693800Y240000D02*
X-673080Y260720D01*
X-927944Y503930D02*
X-819232D01*
X-773004Y550158D01*
X-467188D01*
X-414610Y602736D01*
X-137318D01*
X-133000Y598418D01*
Y570000D02*
Y598418D01*
X-1118952Y632748D02*
X-1107100Y644600D01*
X-1118952Y611880D02*
Y632748D01*
Y611880D02*
X-1113872Y606800D01*
X-1031576D01*
X-984332Y654044D01*
X-62312D01*
X-46310Y638042D01*
Y554730D02*
Y638042D01*
X-118954Y482086D02*
X-46310Y554730D01*
X-177086Y482086D02*
X-118954D01*
X-190000Y495000D02*
X-177086Y482086D01*
X-620100Y560000D02*
X-477100D01*
X-667900Y607800D02*
X-620100Y560000D01*
X-442100D02*
X-432100Y570000D01*
X-247000D01*
X-769500Y530000D02*
X-754422Y545078D01*
X-457022D01*
X-442100Y560000D01*
X-365000Y340000D02*
X-354994Y350006D01*
X-318090D01*
X-244176Y423920D01*
X-234524D01*
X-228936Y418332D01*
Y413760D02*
Y418332D01*
Y413760D02*
X-158324Y343148D01*
Y314954D02*
Y343148D01*
Y314954D02*
X-130130Y286760D01*
X-1085678Y234944D02*
X-1075010Y224276D01*
X-208740Y96260D02*
X-195000Y110000D01*
X-500360Y96260D02*
X-208740D01*
X-505435Y101335D02*
X-500360Y96260D01*
X-619085Y101335D02*
X-505435D01*
X-630256Y90164D02*
X-619085Y101335D01*
X-633812Y74924D02*
X-630256Y90164D01*
X-654211Y74924D02*
X-633812D01*
X-659080Y70055D02*
X-654211Y74924D01*
X-826047Y70055D02*
X-659080D01*
X-834472Y78480D02*
X-826047Y70055D01*
X-834472Y78480D02*
Y134360D01*
X-839552Y139440D02*
X-834472Y134360D01*
X-1039450Y139440D02*
X-839552D01*
X-1053420Y153410D02*
X-1039450Y139440D01*
X-1053420Y153410D02*
Y221736D01*
X-1050880Y224276D01*
X-912724D01*
X-897000Y240000D01*
X-890000Y290000D02*
Y308858D01*
X-898192Y317050D02*
X-890000Y308858D01*
X-1019750Y317050D02*
X-898192D01*
X-606476Y278124D02*
X-594600Y290000D01*
X-633524Y278124D02*
X-606476D01*
X-645400Y290000D02*
X-633524Y278124D01*
X-592500Y440000D02*
X-585500Y447000D01*
X-505400D01*
X-428899Y498100D02*
X-388100D01*
X-480000Y447000D02*
X-428899Y498100D01*
X-1055498Y476498D02*
X-1041500Y462500D01*
X-1140542Y476498D02*
X-1055498D01*
X-1142040Y475000D02*
X-1140542Y476498D01*
X-1190000Y475000D02*
X-1142040D01*
X-600800Y20000D02*
X-588802Y31998D01*
X-511198D01*
X-499200Y20000D01*
X-617370Y36570D02*
X-600800Y20000D01*
X-688830Y36570D02*
X-617370D01*
X-715400Y10000D02*
X-688830Y36570D01*
X-838536Y397504D02*
Y462500D01*
X-1075010Y224276D02*
X-1050880D01*
X-190350Y155350D02*
X-166820Y131820D01*
D28*
X-247000Y570000D02*
D03*
X-133000D02*
D03*
D29*
X-215000Y495000D02*
D03*
X-190000D02*
D03*
D30*
X-165000D02*
D03*
D46*
X-838500Y537500D02*
D03*
D47*
Y462500D02*
D03*
X-1041500Y537500D02*
D03*
X-990700D02*
D03*
X-1092300D02*
D03*
Y462500D02*
D03*
X-1041500D02*
D03*
X-990700D02*
D03*
D49*
X-195000Y110000D02*
D03*
X-145000D02*
D03*
X-490600Y85695D02*
D03*
X-516000D02*
D03*
X-541400D02*
D03*
X-566800D02*
D03*
X-592200D02*
D03*
X-617600D02*
D03*
X-643000D02*
D03*
X-668400D02*
D03*
X-693800D02*
D03*
X-719200D02*
D03*
X-744600D02*
D03*
X-770000D02*
D03*
X-795400D02*
D03*
X-820800D02*
D03*
X-846200D02*
D03*
X-871600D02*
D03*
X-897000D02*
D03*
X-922400D02*
D03*
X-947800D02*
D03*
X-973200D02*
D03*
Y240000D02*
D03*
X-947800D02*
D03*
X-922400D02*
D03*
X-897000D02*
D03*
X-871600D02*
D03*
X-846200D02*
D03*
X-820800D02*
D03*
X-795400D02*
D03*
X-770000D02*
D03*
X-744600D02*
D03*
X-719200D02*
D03*
X-693800D02*
D03*
X-668400D02*
D03*
X-643000D02*
D03*
X-617600D02*
D03*
X-592200D02*
D03*
X-566800D02*
D03*
X-541400D02*
D03*
X-516000D02*
D03*
D50*
X-490600D02*
D03*
D53*
X-652534Y11914D02*
D03*
X-572190Y8554D02*
D03*
X-527810Y8554D02*
D03*
D59*
X-835700Y640000D02*
D03*
X-477100Y560000D02*
D03*
X-360000Y580000D02*
D03*
X-627500Y440000D02*
D03*
D60*
X-810300Y640000D02*
D03*
X-784900D02*
D03*
X-759500D02*
D03*
X-734100D02*
D03*
X-708700D02*
D03*
X-683300D02*
D03*
X-657900D02*
D03*
X-632500D02*
D03*
X-607100D02*
D03*
X-581700D02*
D03*
X-556300D02*
D03*
X-530900D02*
D03*
X-442100Y560000D02*
D03*
X-325000Y580000D02*
D03*
X-592500Y440000D02*
D03*
D61*
X-1195000Y70000D02*
D03*
X-1145000D02*
D03*
X-170000Y700000D02*
D03*
X-220000D02*
D03*
X-60000Y165000D02*
D03*
Y115000D02*
D03*
Y425000D02*
D03*
Y475000D02*
D03*
X-1190000Y625000D02*
D03*
Y575000D02*
D03*
Y475000D02*
D03*
Y425000D02*
D03*
X-60000Y615000D02*
D03*
Y565000D02*
D03*
X-325000Y700000D02*
D03*
X-375000D02*
D03*
D62*
X-769500Y530000D02*
D03*
D63*
X-744100D02*
D03*
X-718700D02*
D03*
X-693300D02*
D03*
X-667900D02*
D03*
X-642500D02*
D03*
X-617100D02*
D03*
X-591700D02*
D03*
X-566300D02*
D03*
X-540900D02*
D03*
Y607800D02*
D03*
X-566300D02*
D03*
X-591700D02*
D03*
X-617100D02*
D03*
X-642500D02*
D03*
X-667900D02*
D03*
X-693300D02*
D03*
X-718700D02*
D03*
X-744100D02*
D03*
X-769500D02*
D03*
D64*
X-1107100Y670000D02*
D03*
Y644600D02*
D03*
Y695400D02*
D03*
Y720800D02*
D03*
X-1047100Y670000D02*
D03*
Y644600D02*
D03*
Y695400D02*
D03*
Y720800D02*
D03*
X-130000Y20000D02*
D03*
X-104600D02*
D03*
X-40000Y330000D02*
D03*
Y304600D02*
D03*
X-370000Y20000D02*
D03*
X-395400D02*
D03*
X-344600D02*
D03*
X-319200D02*
D03*
X-550000D02*
D03*
X-524600D02*
D03*
X-575400D02*
D03*
X-600800D02*
D03*
X-645400Y290000D02*
D03*
X-620000D02*
D03*
X-915400D02*
D03*
X-890000D02*
D03*
X-664600Y10000D02*
D03*
X-690000D02*
D03*
X-754600Y290000D02*
D03*
X-780000D02*
D03*
X-729200D02*
D03*
X-703800D02*
D03*
X-784600Y20000D02*
D03*
X-810000D02*
D03*
X-535400Y290000D02*
D03*
X-510000D02*
D03*
X-901900Y20000D02*
D03*
X-927300D02*
D03*
X-952700D02*
D03*
D65*
X-1107100Y619200D02*
D03*
X-1047100D02*
D03*
X-40000Y279200D02*
D03*
D66*
X-315000Y340000D02*
D03*
X-715000Y440000D02*
D03*
D67*
X-365000Y340000D02*
D03*
X-765000Y440000D02*
D03*
D68*
X-311900Y498100D02*
D03*
X-337300D02*
D03*
X-362700D02*
D03*
X-388100D02*
D03*
X-311900Y421900D02*
D03*
X-337300D02*
D03*
X-362700D02*
D03*
X-301900Y258100D02*
D03*
X-327300D02*
D03*
X-352700D02*
D03*
X-378100D02*
D03*
X-301900Y181900D02*
D03*
X-327300D02*
D03*
X-352700D02*
D03*
D69*
X-388100Y421900D02*
D03*
X-378100Y181900D02*
D03*
D70*
X-214600Y230000D02*
D03*
X-227300D02*
D03*
X-97300Y350000D02*
D03*
X-110000D02*
D03*
X-324600Y110000D02*
D03*
X-337300D02*
D03*
D71*
X-240000Y230000D02*
D03*
X-122700Y350000D02*
D03*
X-350000Y110000D02*
D03*
D72*
X-1040000Y159200D02*
D03*
Y184600D02*
D03*
D73*
Y210000D02*
D03*
D74*
X-79200Y20000D02*
D03*
X-420800D02*
D03*
X-499200D02*
D03*
X-594600Y290000D02*
D03*
X-864600D02*
D03*
X-715400Y10000D02*
D03*
X-805400Y290000D02*
D03*
X-835400Y20000D02*
D03*
X-484600Y290000D02*
D03*
X-978100Y20000D02*
D03*
D75*
X-505400Y447000D02*
D03*
X-480000D02*
D03*
D76*
X-454600D02*
D03*
D77*
X-1200000Y10000D02*
D03*
X-30000Y30000D02*
D03*
X-40000Y710000D02*
D03*
X-1190000Y730000D02*
D03*
D78*
X-1209840Y261637D02*
D03*
X-890352Y579622D02*
D03*
X-1119750Y368802D02*
D03*
X-134194Y96260D02*
D03*
X-425024Y83052D02*
D03*
X-728046Y667760D02*
D03*
X-948772Y182620D02*
D03*
X-239096Y413760D02*
D03*
X-790276Y460750D02*
D03*
X-585298Y157220D02*
D03*
X-1068914Y313684D02*
D03*
X-784688Y433064D02*
D03*
X-999318Y599688D02*
D03*
X-860126Y101848D02*
D03*
X-119716Y683000D02*
D03*
X-423754Y197860D02*
D03*
X-215474Y205734D02*
D03*
X-215982Y446272D02*
D03*
X-821010Y399790D02*
D03*
X-851380Y317494D02*
D03*
X-462870Y267202D02*
D03*
X-902798Y306826D02*
D03*
X-262718Y193288D02*
D03*
X-561676Y272028D02*
D03*
X-643464D02*
D03*
X-1016430Y284380D02*
D03*
X-679532Y269996D02*
D03*
X-633380Y416554D02*
D03*
X-723288Y218688D02*
D03*
X-402418D02*
D03*
X-285070Y347720D02*
D03*
X-657210Y314954D02*
D03*
X-586568D02*
D03*
X-509098Y386328D02*
D03*
X-1167212Y295396D02*
D03*
X-397680Y287180D02*
D03*
X-957408Y284220D02*
D03*
X-218776Y420618D02*
D03*
X-927944Y503930D02*
D03*
X-50130Y247260D02*
D03*
X-1085678Y234944D02*
D03*
X-1019750Y317050D02*
D03*
M02*
